<svg width="72" height="73" viewBox="0 0 72 73" fill="none" xmlns="http://www.w3.org/2000/svg">
<path fill-rule="evenodd" clip-rule="evenodd" d="M10.0008 46.0455V54.6445C10.0008 55.2967 10.3484 55.8978 10.9128 56.2247C14.746 58.4378 29.6002 67.0129 34.8221 70.0281C35.9526 70.6819 37.3462 70.6803 38.475 70.0249C43.6842 67.005 58.4938 58.4187 62.3158 56.204C62.8786 55.8771 63.2246 55.276 63.2246 54.6254V45.8462" fill="#3DFFDC"/>
<path fill-rule="evenodd" clip-rule="evenodd" d="M33.4986 31.4023C35.2175 30.4105 37.8212 30.3021 39.3089 31.1615L62.2184 44.3894C63.7061 45.2488 63.5195 46.7524 61.8007 47.7441L39.7251 60.4904C38.0062 61.4822 35.4024 61.5906 33.9148 60.7312L11.0036 47.5034C9.51599 46.644 9.70254 45.1404 11.4214 44.1486L33.4986 31.4023Z" fill="#0BAA8D"/>
<path fill-rule="evenodd" clip-rule="evenodd" d="M39.1387 65.4972C39.1387 64.853 39.5309 64.1036 40.0141 63.8246L60.5016 51.9951C60.9847 51.7161 61.377 52.0126 61.377 52.6568C61.377 53.301 60.9847 54.0504 60.5016 54.3294L40.0141 66.1573C39.5309 66.4363 39.1387 66.1397 39.1387 65.4956" fill="#3DFFDC"/>
<path fill-rule="evenodd" clip-rule="evenodd" d="M32.0633 63.1608C31.5052 62.8387 31.0524 63.1002 31.0524 63.7444C31.0524 64.3886 31.5052 65.1731 32.0633 65.4951C32.6214 65.8172 33.0742 65.5541 33.0742 64.9116C33.0742 64.269 32.6214 63.4829 32.0633 63.1608Z" fill="#3DFFDC"/>
<path fill-rule="evenodd" clip-rule="evenodd" d="M24.9871 59.0768C24.4291 58.7548 23.9762 59.0162 23.9762 59.6604C23.9762 60.3046 24.4291 61.0891 24.9871 61.4112C25.5452 61.7332 25.998 61.4718 25.998 60.8276C25.998 60.1834 25.5452 59.3989 24.9871 59.0768Z" fill="#313965"/>
<path fill-rule="evenodd" clip-rule="evenodd" d="M21.4481 57.0358C20.89 56.7137 20.4372 56.9752 20.4372 57.6194C20.4372 58.2636 20.89 59.0481 21.4481 59.3702C22.0061 59.6922 22.459 59.4307 22.459 58.7866C22.459 58.1424 22.0046 57.3579 21.4481 57.0358Z" fill="#3DFFDC"/>
<path fill-rule="evenodd" clip-rule="evenodd" d="M17.911 54.9919C17.3529 54.6698 16.9001 54.9313 16.9001 55.5755C16.9001 56.2196 17.3529 57.0041 17.911 57.3262C18.469 57.6483 18.9219 57.3868 18.9219 56.7426C18.9219 56.0985 18.469 55.314 17.911 54.9919Z" fill="#3DFFDC"/>
<path fill-rule="evenodd" clip-rule="evenodd" d="M14.3729 52.9479C13.8148 52.6259 13.362 52.8873 13.362 53.5315C13.362 54.1757 13.8148 54.9602 14.3729 55.2823C14.931 55.6043 15.3838 55.3429 15.3838 54.6987C15.3838 54.0545 14.931 53.27 14.3729 52.9479Z" fill="#313965"/>
<path fill-rule="evenodd" clip-rule="evenodd" d="M10.0008 32.0396V40.6387C10.0008 41.2908 10.3484 41.892 10.9128 42.2188C14.746 44.432 29.6002 53.0071 34.8221 56.0223C35.9526 56.676 37.3462 56.6744 38.475 56.0191C43.6842 52.9991 58.4938 44.4128 62.3158 42.1981C62.8786 41.8712 63.2246 41.2701 63.2246 40.6196V31.8403" fill="#3DFFDC"/>
<path fill-rule="evenodd" clip-rule="evenodd" d="M33.4986 17.3964C35.2175 16.4047 37.8212 16.2962 39.3089 17.1557L62.2184 30.3819C63.7061 31.2413 63.5195 32.7449 61.8007 33.7367L39.7251 46.483C38.0062 47.4748 35.4024 47.5832 33.9148 46.7238L11.0036 33.4959C9.51599 32.6365 9.70254 31.1329 11.4214 30.1411L33.4986 17.3948V17.3964Z" fill="#0BAA8D"/>
<path fill-rule="evenodd" clip-rule="evenodd" d="M39.1387 51.4887C39.1387 50.8446 39.5309 50.0952 40.0141 49.8161L60.5016 37.9883C60.9847 37.7092 61.377 38.0058 61.377 38.65C61.377 39.2941 60.9847 40.0435 60.5016 40.3226L40.0141 52.1505C39.5309 52.4295 39.1387 52.1329 39.1387 51.4887Z" fill="#3DFFDC"/>
<path fill-rule="evenodd" clip-rule="evenodd" d="M32.0633 49.155C31.5052 48.8329 31.0524 49.0944 31.0524 49.7385C31.0524 50.3827 31.5052 51.1672 32.0633 51.4893C32.6214 51.8114 33.0742 51.5483 33.0742 50.9057C33.0742 50.2631 32.6214 49.4771 32.0633 49.155Z" fill="#3DFFDC"/>
<path fill-rule="evenodd" clip-rule="evenodd" d="M24.9871 45.07C24.4291 44.7479 23.9762 45.0094 23.9762 45.6536C23.9762 46.2978 24.4291 47.0822 24.9871 47.4043C25.5452 47.7264 25.998 47.4649 25.998 46.8208C25.998 46.1766 25.5452 45.3921 24.9871 45.07Z" fill="#313965"/>
<path fill-rule="evenodd" clip-rule="evenodd" d="M21.4481 43.028C20.89 42.7059 20.4372 42.9674 20.4372 43.6116C20.4372 44.2558 20.89 45.0403 21.4481 45.3623C22.0061 45.6844 22.459 45.4229 22.459 44.7788C22.459 44.1346 22.0046 43.3501 21.4481 43.028Z" fill="#313965"/>
<path fill-rule="evenodd" clip-rule="evenodd" d="M17.911 40.986C17.3529 40.6639 16.9001 40.9254 16.9001 41.5696C16.9001 42.2138 17.3529 42.9983 17.911 43.3203C18.469 43.6424 18.9219 43.3809 18.9219 42.7368C18.9219 42.0926 18.469 41.3081 17.911 40.986Z" fill="#313965"/>
<path fill-rule="evenodd" clip-rule="evenodd" d="M14.3729 38.9421C13.8148 38.62 13.362 38.8815 13.362 39.5257C13.362 40.1698 13.8148 40.9543 14.3729 41.2764C14.931 41.5985 15.3838 41.337 15.3838 40.6928C15.3838 40.0486 14.931 39.2642 14.3729 38.9421Z" fill="#313965"/>
<path fill-rule="evenodd" clip-rule="evenodd" d="M10.033 18.0722V26.6713C10.033 27.3234 10.3806 27.9245 10.945 28.2514C14.7798 30.4645 29.6324 39.0413 34.8543 42.0564C35.9848 42.7086 37.3784 42.7086 38.5073 42.0533C43.718 39.0317 58.526 30.447 62.348 28.2307C62.9108 27.9054 63.2568 27.3043 63.2568 26.6537V17.8745" fill="#3DFFDC"/>
<path fill-rule="evenodd" clip-rule="evenodd" d="M33.5318 3.42801C35.2507 2.43624 37.8529 2.32941 39.3405 3.18724L62.2516 16.4151C63.7393 17.2745 63.5527 18.7781 61.8339 19.7699L39.7567 32.5162C38.0394 33.5095 35.4356 33.6164 33.948 32.7569L11.0368 19.5291C9.54919 18.6697 9.73574 17.1661 11.4546 16.1743L33.5318 3.42801Z" fill="#0BAA8D"/>
<path fill-rule="evenodd" clip-rule="evenodd" d="M39.1719 37.5229C39.1719 36.8788 39.5641 36.1293 40.0473 35.8503L60.5348 24.0224C61.0179 23.7434 61.4102 24.04 61.4102 24.6841C61.4102 25.3283 61.0179 26.0777 60.5348 26.3568L40.0473 38.1846C39.5641 38.4637 39.1719 38.1671 39.1719 37.5229Z" fill="#3DFFDC"/>
<path fill-rule="evenodd" clip-rule="evenodd" d="M32.0975 35.1894C31.5394 34.8673 31.0866 35.1272 31.0866 35.773C31.0866 36.4188 31.541 37.2017 32.0975 37.5238C32.6556 37.8458 33.1084 37.5843 33.1084 36.9402C33.1084 36.296 32.6556 35.5115 32.0975 35.1894Z" fill="#3DFFDC"/>
<path fill-rule="evenodd" clip-rule="evenodd" d="M28.5575 33.1465C27.9994 32.8244 27.5466 33.0843 27.5466 33.73C27.5466 34.3758 27.9994 35.1587 28.5575 35.4808C29.1155 35.8029 29.5684 35.5414 29.5684 34.8972C29.5684 34.253 29.1155 33.4686 28.5575 33.1465Z" fill="#3DFFDC"/>
<path fill-rule="evenodd" clip-rule="evenodd" d="M28.5575 47.152C27.9994 46.83 27.5466 47.0914 27.5466 47.7356C27.5466 48.3798 27.9994 49.1643 28.5575 49.4864C29.1155 49.8084 29.5684 49.547 29.5684 48.9028C29.5684 48.2586 29.1155 47.4741 28.5575 47.152Z" fill="#3DFFDC"/>
<path fill-rule="evenodd" clip-rule="evenodd" d="M28.5575 61.1598C27.9994 60.8378 27.5466 61.0993 27.5466 61.7434C27.5466 62.3876 27.9994 63.1721 28.5575 63.4942C29.1155 63.8163 29.5684 63.5548 29.5684 62.9106C29.5684 62.2664 29.1155 61.4819 28.5575 61.1598Z" fill="#313965"/>
<path fill-rule="evenodd" clip-rule="evenodd" d="M25.0203 31.1032C24.4623 30.7811 24.0094 31.0426 24.0094 31.6868C24.0094 32.331 24.4623 33.1154 25.0203 33.4375C25.5784 33.7596 26.0312 33.4981 26.0312 32.854C26.0312 32.2098 25.5784 31.4253 25.0203 31.1032Z" fill="#3DFFDC"/>
<path fill-rule="evenodd" clip-rule="evenodd" d="M21.4832 29.0612C20.9252 28.7391 20.4723 29.0006 20.4723 29.6448C20.4723 30.289 20.9252 31.0735 21.4832 31.3955C22.0413 31.7176 22.4941 31.4545 22.4941 30.812C22.4941 30.1694 22.0413 29.3833 21.4832 29.0612Z" fill="#313965"/>
<path fill-rule="evenodd" clip-rule="evenodd" d="M17.9442 27.0192C17.3861 26.6971 16.9333 26.9586 16.9333 27.6028C16.9333 28.247 17.3861 29.0315 17.9442 29.3535C18.5022 29.6756 18.9551 29.4141 18.9551 28.77C18.9551 28.1258 18.5022 27.3413 17.9442 27.0192Z" fill="#313965"/>
<path fill-rule="evenodd" clip-rule="evenodd" d="M14.4061 24.9763C13.848 24.6542 13.3952 24.9157 13.3952 25.5598C13.3952 26.204 13.848 26.9885 14.4061 27.3106C14.9642 27.6327 15.417 27.3712 15.417 26.727C15.417 26.0828 14.9626 25.2983 14.4061 24.9763Z" fill="#313965"/>
<path d="M7.46645 55.2821C7.46645 54.6659 7.57048 54.1417 7.75855 53.7136C6.28603 53.5535 5.24568 54.6139 5.24568 56.5626C5.24568 59.1235 7.0423 62.2366 9.26308 63.517C10.9477 64.4894 12.3882 64.1212 12.9844 62.7648C12.5202 62.7127 12.0121 62.5407 11.4799 62.2366C9.26309 60.9561 7.46645 57.843 7.46645 55.2821Z" fill="#E17900"/>
<path d="M17.4981 54.1254C14.173 48.3714 8.78706 45.2543 5.4619 47.175L3.24513 48.4554C6.57029 46.5348 11.9602 49.6479 15.2853 55.4059C18.6065 61.1599 18.6065 67.3781 15.2933 69.2987L17.5061 68.0223C20.8313 66.1016 20.8313 59.8794 17.5061 54.1214L17.4981 54.1254Z" fill="#E17900"/>
<path d="M15.282 69.306L9.26384 72.7792L3.24575 62.3555C-0.0794182 56.5975 -0.0794182 50.3753 3.24575 48.4547C6.57091 46.534 11.9608 49.6471 15.2859 55.4051C18.6071 61.1631 18.6111 67.3853 15.2859 69.306H15.282ZM13.2773 61.1991C13.2773 58.6382 11.4806 55.5212 9.26384 54.2407C7.04707 52.9603 5.24645 53.9966 5.24645 56.5615C5.24645 59.1264 7.04307 62.2355 9.26384 63.5159C11.4806 64.7964 13.2773 63.756 13.2773 61.1991Z" fill="#FF9C28"/>
</svg>
