<svg width="52" height="52" viewBox="0 0 52 52" fill="none" xmlns="http://www.w3.org/2000/svg">
<g clip-path="url(#clip0_2_1400)">
<rect x="-3.7207" y="-3.4248" width="61.5517" height="71.7517" fill="#FF8A00"/>
<path d="M25.2098 36.3662H20.3721L20.4032 33.2707H25.2098C26.6098 33.2707 27.7816 32.9648 28.7253 32.3529C29.6794 31.7411 30.395 30.8648 30.872 29.724C31.3594 28.5833 31.6031 27.2248 31.6031 25.6485V24.4196C31.6031 23.1959 31.4631 22.1122 31.1831 21.1685C30.9135 20.2248 30.509 19.4315 29.9698 18.7885C29.4409 18.1456 28.7876 17.6582 28.0098 17.3263C27.2424 16.9945 26.3557 16.8286 25.3498 16.8286H20.2787V13.7175H25.3498C26.8535 13.7175 28.2276 13.9715 29.472 14.4797C30.7164 14.9775 31.7898 15.6982 32.692 16.6419C33.6046 17.5856 34.3046 18.7159 34.792 20.033C35.2794 21.35 35.5231 22.8226 35.5231 24.4507V25.6485C35.5231 27.2766 35.2794 28.7492 34.792 30.0662C34.3046 31.3833 33.6046 32.5136 32.692 33.4573C31.7794 34.3907 30.6905 35.1114 29.4253 35.6195C28.1705 36.1173 26.7654 36.3662 25.2098 36.3662ZM22.5343 13.7175V36.3662H18.6298V13.7175H22.5343Z" fill="white"/>
</g>
<defs>
<clipPath id="clip0_2_1400">
<rect x="0.5" y="0.172852" width="51" height="51" rx="25.5" fill="white"/>
</clipPath>
</defs>
</svg>
