<svg width="22" height="27" viewBox="0 0 22 27" fill="none" xmlns="http://www.w3.org/2000/svg">
<path fill-rule="evenodd" clip-rule="evenodd" d="M21.448 11.4425C21.4451 14.6798 20.0054 17.5791 17.7357 19.5434L15.9411 21.3347L15.9439 21.3376L13.4419 23.8396L13.4369 23.8346L10.7042 26.5623L3.60378 19.4492C3.28273 19.164 2.97968 18.86 2.69506 18.5388L2.64281 18.4865L2.64658 18.4823C0.997802 16.5949 -0.00240393 14.126 4.3391e-06 11.4229C0.00444561 5.50054 4.81032 0.703222 10.7331 0.7085C16.656 0.713779 21.4533 5.51966 21.448 11.4425ZM13.4369 23.8346L5.81247 16.1766C3.07772 13.4419 3.08466 8.99285 5.81887 6.25864C8.55308 3.52443 13.0021 3.51749 15.7368 6.25224C18.4716 8.98699 18.4646 13.436 15.7304 16.1702L13.2703 18.6304L15.9411 21.3347L13.4369 23.8346ZM8.31451 13.6746L10.7683 16.1283L13.2284 13.6682C14.5848 12.3117 14.5836 10.1031 13.2348 8.75428C11.886 7.40543 9.67735 7.40423 8.32091 8.76068C6.96446 10.1171 6.96566 12.3257 8.31451 13.6746Z" fill="#FF9C28"/>
</svg>
