<svg width="174" height="54" viewBox="0 0 174 54" fill="none" xmlns="http://www.w3.org/2000/svg">
<path d="M51.5735 13.0578V10.908H55.4596C56.1348 10.908 56.6757 10.8012 57.0823 10.5876C57.4957 10.374 57.7988 10.0777 57.9918 9.69875C58.1847 9.31978 58.2812 8.8857 58.2812 8.39648C58.2812 7.92794 58.1847 7.49041 57.9918 7.08388C57.7988 6.67735 57.4957 6.34662 57.0823 6.09168C56.6757 5.83674 56.1348 5.70927 55.4596 5.70927H52.3796V18.6079H49.7131V3.55949H55.4596C56.6309 3.55949 57.6266 3.7662 58.4465 4.17962C59.2665 4.59304 59.8901 5.16149 60.3173 5.88497C60.7513 6.60845 60.9684 7.43873 60.9684 8.37581C60.9684 9.34735 60.7513 10.1845 60.3173 10.8873C59.8901 11.5832 59.2665 12.1207 58.4465 12.4997C57.6266 12.8717 56.6309 13.0578 55.4596 13.0578H51.5735ZM66.0013 18.6079H63.4381V7.42495H65.8773L66.0013 9.61607V18.6079ZM69.3707 9.78144C69.2122 9.75387 69.0434 9.7332 68.8643 9.71942C68.692 9.70564 68.5197 9.69875 68.3475 9.69875C67.7825 9.69875 67.3105 9.80211 66.9315 10.0088C66.5594 10.2086 66.2769 10.498 66.084 10.877C65.8911 11.2491 65.7774 11.69 65.7429 12.1999L65.1538 12.2103C65.1538 11.2663 65.2779 10.4188 65.5259 9.66775C65.774 8.9167 66.146 8.32069 66.6421 7.87971C67.1382 7.43873 67.7584 7.21824 68.5025 7.21824C68.6472 7.21824 68.8091 7.23202 68.9883 7.25958C69.1674 7.28715 69.3018 7.31815 69.3914 7.3526L69.3707 9.78144ZM70.6622 12.9131C70.6622 11.8244 70.8689 10.8529 71.2823 9.99848C71.6958 9.14408 72.2883 8.46883 73.06 7.97273C73.8386 7.46974 74.7723 7.21824 75.8609 7.21824C76.9634 7.21824 77.9039 7.46974 78.6825 7.97273C79.4611 8.46883 80.0537 9.14408 80.4602 9.99848C80.8736 10.8529 81.0803 11.8244 81.0803 12.9131V13.1301C81.0803 14.2119 80.8736 15.1834 80.4602 16.0447C80.0537 16.8991 79.4611 17.5744 78.6825 18.0705C77.9108 18.5666 76.9772 18.8146 75.8816 18.8146C74.7861 18.8146 73.849 18.5666 73.0704 18.0705C72.2918 17.5744 71.6958 16.8991 71.2823 16.0447C70.8689 15.1834 70.6622 14.2119 70.6622 13.1301V12.9131ZM73.2254 13.1301C73.2254 13.7916 73.3184 14.3979 73.5045 14.9492C73.6905 15.4935 73.9764 15.931 74.3623 16.2618C74.755 16.5925 75.2615 16.7579 75.8816 16.7579C76.4948 16.7579 76.9944 16.5925 77.3803 16.2618C77.773 15.931 78.0589 15.4935 78.2381 14.9492C78.4241 14.3979 78.5172 13.7916 78.5172 13.1301V12.9131C78.5172 12.2585 78.4241 11.6556 78.2381 11.1044C78.0589 10.5531 77.773 10.1122 77.3803 9.78144C76.9875 9.44381 76.4811 9.275 75.8609 9.275C75.2477 9.275 74.7447 9.44381 74.352 9.78144C73.9661 10.1122 73.6802 10.5531 73.4941 11.1044C73.315 11.6556 73.2254 12.2585 73.2254 12.9131V13.1301ZM87.3639 11.0527L89.4723 7.42495H92.2836L88.9142 12.9131L92.4076 18.6079H89.6067L87.3742 14.8148L85.1624 18.6079H82.3305L85.8342 12.9131L82.4649 7.42495H85.2865L87.3639 11.0527ZM100.634 7.42495H103.373L98.8978 20.3029C98.7945 20.5854 98.6601 20.8886 98.4948 21.2124C98.3294 21.5363 98.1123 21.8429 97.8436 22.1323C97.5818 22.4217 97.2511 22.6594 96.8514 22.8454C96.4587 23.0315 95.9832 23.1245 95.4251 23.1245C95.2735 23.1245 95.1254 23.1142 94.9807 23.0935C94.8429 23.0797 94.7085 23.059 94.5776 23.0315C94.4467 23.0039 94.3192 22.9729 94.1952 22.9385V20.9644C94.2641 20.9713 94.3468 20.9782 94.4433 20.9851C94.5397 20.992 94.619 20.9954 94.681 20.9954C95.2942 20.9954 95.7593 20.8852 96.0763 20.6647C96.3932 20.4442 96.6378 20.0687 96.8101 19.5381L97.6266 17.378L100.634 7.42495ZM98.5981 15.7036L99.0529 18.4735L97.2752 18.8766L93.234 7.42495H96.0039L98.5981 15.7036ZM119.01 14.7218C119.01 14.3153 118.924 13.9707 118.751 13.6882C118.586 13.3988 118.273 13.1336 117.811 12.8924C117.349 12.6444 116.684 12.386 115.816 12.1172C115.106 11.9036 114.448 11.659 113.842 11.3834C113.243 11.1078 112.719 10.7909 112.271 10.4326C111.823 10.0674 111.472 9.64707 111.217 9.17164C110.969 8.68932 110.845 8.13465 110.845 7.50764C110.845 6.68769 111.072 5.96765 111.527 5.34753C111.982 4.72051 112.612 4.2313 113.418 3.87989C114.224 3.52849 115.158 3.35278 116.219 3.35278C117.349 3.35278 118.321 3.55949 119.134 3.97291C119.947 4.37944 120.57 4.93066 121.005 5.62658C121.446 6.3225 121.666 7.09766 121.666 7.95206H118.999C118.999 7.47663 118.896 7.05288 118.689 6.6808C118.49 6.30183 118.183 6.009 117.77 5.80229C117.356 5.58869 116.829 5.48189 116.188 5.48189C115.589 5.48189 115.089 5.57146 114.69 5.75061C114.29 5.92976 113.994 6.17092 113.801 6.47409C113.608 6.77726 113.511 7.12178 113.511 7.50764C113.511 7.87282 113.628 8.19667 113.863 8.47917C114.097 8.76167 114.452 9.02006 114.927 9.25433C115.403 9.48171 115.995 9.7022 116.705 9.9158C117.821 10.2396 118.748 10.6186 119.485 11.0527C120.222 11.4868 120.77 12.0001 121.129 12.5927C121.494 13.1852 121.676 13.8881 121.676 14.7011C121.676 15.5486 121.456 16.2824 121.015 16.9026C120.574 17.5158 119.95 17.9878 119.144 18.3185C118.338 18.6493 117.391 18.8146 116.302 18.8146C115.578 18.8146 114.865 18.7182 114.162 18.5252C113.46 18.3254 112.822 18.0291 112.25 17.6364C111.685 17.2367 111.231 16.7372 110.886 16.1377C110.549 15.5383 110.38 14.832 110.38 14.019H113.046C113.046 14.5013 113.129 14.9113 113.294 15.2489C113.46 15.5865 113.69 15.8656 113.987 16.0861C114.283 16.2997 114.628 16.4547 115.02 16.5512C115.42 16.6476 115.847 16.6959 116.302 16.6959C116.901 16.6959 117.401 16.6132 117.801 16.4478C118.2 16.2755 118.5 16.0413 118.7 15.745C118.906 15.4487 119.01 15.1076 119.01 14.7218ZM129.097 18.8146C127.987 18.8146 127.03 18.5769 126.224 18.1015C125.417 17.6192 124.797 16.9715 124.363 16.1584C123.929 15.3385 123.712 14.4221 123.712 13.4092V12.9854C123.712 11.821 123.933 10.8081 124.373 9.9468C124.814 9.07862 125.417 8.40682 126.182 7.93139C126.954 7.45596 127.826 7.21824 128.797 7.21824C129.872 7.21824 130.764 7.45251 131.474 7.92105C132.184 8.3827 132.714 9.02695 133.066 9.85378C133.417 10.6737 133.593 11.6246 133.593 12.7064V13.8123H124.942V11.9622H131.061V11.7658C131.047 11.3318 130.964 10.9252 130.812 10.5463C130.661 10.1673 130.42 9.86067 130.089 9.6264C129.765 9.39213 129.331 9.275 128.787 9.275C128.242 9.275 127.784 9.43003 127.412 9.74009C127.04 10.0433 126.758 10.4739 126.565 11.032C126.372 11.5832 126.275 12.2344 126.275 12.9854V13.4092C126.275 14.0431 126.392 14.6115 126.627 15.1145C126.861 15.6175 127.202 16.0172 127.65 16.3134C128.098 16.6028 128.632 16.7475 129.252 16.7475C129.851 16.7475 130.382 16.6304 130.843 16.3961C131.312 16.1619 131.715 15.8242 132.053 15.3832L133.396 16.7269C133.045 17.2574 132.514 17.7397 131.805 18.1738C131.102 18.601 130.199 18.8146 129.097 18.8146ZM138.502 18.6079H135.938V7.42495H138.378L138.502 9.61607V18.6079ZM141.871 9.78144C141.713 9.75387 141.544 9.7332 141.365 9.71942C141.192 9.70564 141.02 9.69875 140.848 9.69875C140.283 9.69875 139.811 9.80211 139.432 10.0088C139.06 10.2086 138.777 10.498 138.584 10.877C138.391 11.2491 138.278 11.69 138.243 12.1999L137.654 12.2103C137.654 11.2663 137.778 10.4188 138.026 9.66775C138.274 8.9167 138.646 8.32069 139.142 7.87971C139.639 7.43873 140.259 7.21824 141.003 7.21824C141.148 7.21824 141.309 7.23202 141.489 7.25958C141.668 7.28715 141.802 7.31815 141.892 7.3526L141.871 9.78144ZM150.449 7.42495H153.105L149.24 18.6079H147.586L147.751 16.5822L150.449 7.42495ZM148.475 16.6132L148.599 18.6079H146.956L143.059 7.42495H145.726L148.475 16.6132ZM160.009 18.8146C158.9 18.8146 157.942 18.5769 157.136 18.1015C156.329 17.6192 155.709 16.9715 155.275 16.1584C154.841 15.3385 154.624 14.4221 154.624 13.4092V12.9854C154.624 11.821 154.845 10.8081 155.286 9.9468C155.727 9.07862 156.329 8.40682 157.094 7.93139C157.866 7.45596 158.738 7.21824 159.709 7.21824C160.784 7.21824 161.676 7.45251 162.386 7.92105C163.096 8.3827 163.626 9.02695 163.978 9.85378C164.329 10.6737 164.505 11.6246 164.505 12.7064V13.8123H155.854V11.9622H161.973V11.7658C161.959 11.3318 161.876 10.9252 161.725 10.5463C161.573 10.1673 161.332 9.86067 161.001 9.6264C160.677 9.39213 160.243 9.275 159.699 9.275C159.154 9.275 158.696 9.43003 158.324 9.74009C157.952 10.0433 157.67 10.4739 157.477 11.032C157.284 11.5832 157.187 12.2344 157.187 12.9854V13.4092C157.187 14.0431 157.304 14.6115 157.539 15.1145C157.773 15.6175 158.114 16.0172 158.562 16.3134C159.01 16.6028 159.544 16.7475 160.164 16.7475C160.763 16.7475 161.294 16.6304 161.756 16.3961C162.224 16.1619 162.627 15.8242 162.965 15.3832L164.308 16.7269C163.957 17.2574 163.426 17.7397 162.717 18.1738C162.014 18.601 161.111 18.8146 160.009 18.8146ZM169.414 18.6079H166.851V7.42495H169.29L169.414 9.61607V18.6079ZM172.783 9.78144C172.625 9.75387 172.456 9.7332 172.277 9.71942C172.104 9.70564 171.932 9.69875 171.76 9.69875C171.195 9.69875 170.723 9.80211 170.344 10.0088C169.972 10.2086 169.689 10.498 169.496 10.877C169.303 11.2491 169.19 11.69 169.155 12.1999L168.566 12.2103C168.566 11.2663 168.69 10.4188 168.938 9.66775C169.186 8.9167 169.558 8.32069 170.055 7.87971C170.551 7.43873 171.171 7.21824 171.915 7.21824C172.06 7.21824 172.222 7.23202 172.401 7.25958C172.58 7.28715 172.714 7.31815 172.804 7.3526L172.783 9.78144Z" fill="white"/>
<path d="M58.0523 24.9852C59.6985 24.9852 61.1109 25.2336 62.2896 25.7304C63.478 26.2174 64.3888 26.9383 65.0219 27.8929C65.6551 28.8377 65.9717 30.0115 65.9717 31.4142C65.9717 32.5832 65.7769 33.5767 65.3872 34.395C65.0073 35.2132 64.4716 35.8902 63.78 36.426C63.0883 36.9617 62.275 37.3952 61.3398 37.7264L59.8787 38.5593H53.0551L53.0259 34.8479H58.0376C58.778 34.8479 59.3965 34.7262 59.8933 34.4827C60.3901 34.2294 60.7602 33.8738 61.0038 33.416C61.2473 32.9582 61.3691 32.4176 61.3691 31.7941C61.3691 30.8395 61.0963 30.0846 60.5508 29.5294C60.0151 28.9741 59.1822 28.6965 58.0523 28.6965H54.6332V46.2595H50.0452V24.9852H58.0523ZM57.0294 36.8059L61.8805 36.7767L66.7461 46.0403V46.2595H61.822L57.0294 36.8059ZM76.9297 46.5518C75.264 46.5518 73.837 46.2059 72.6486 45.5143C71.4699 44.8227 70.564 43.8973 69.9308 42.7382C69.3074 41.579 68.9957 40.298 68.9957 38.8953V38.3255C68.9957 36.7474 69.2928 35.3447 69.887 34.1174C70.4909 32.8803 71.3481 31.911 72.4586 31.2097C73.5691 30.5083 74.8939 30.1577 76.4329 30.1577C77.9623 30.1577 79.2481 30.4791 80.2904 31.122C81.3327 31.7649 82.1217 32.6708 82.6574 33.8397C83.1932 34.9989 83.4611 36.3627 83.4611 37.931V39.8012H70.8513V36.8351H79.1214V36.4844C79.1214 35.9389 79.024 35.4568 78.8292 35.0379C78.6344 34.619 78.3373 34.2927 77.9379 34.0589C77.5483 33.8251 77.0369 33.7082 76.4037 33.7082C75.6829 33.7082 75.1033 33.9128 74.6649 34.3219C74.2266 34.731 73.9051 35.2814 73.7006 35.973C73.5058 36.6646 73.4084 37.4488 73.4084 38.3255V38.8953C73.4084 39.7038 73.5593 40.4149 73.8613 41.0286C74.1633 41.6423 74.5968 42.1245 75.1617 42.4751C75.7267 42.8161 76.4086 42.9865 77.2073 42.9865C77.9574 42.9865 78.6587 42.8502 79.3114 42.5774C79.964 42.2949 80.5193 41.8566 80.9771 41.2624L83.1104 43.7025C82.6136 44.4136 81.8441 45.0662 80.8018 45.6605C79.7692 46.2547 78.4785 46.5518 76.9297 46.5518ZM94.9451 30.4499H99.5623L94.273 46.2595H91.4822L91.5699 43.0012L94.9451 30.4499ZM92.7242 43.0158L92.7972 46.2595H90.0064L84.7025 30.4499H89.3489L92.7242 43.0158ZM106.605 46.2595H102.177V30.4499H106.605V46.2595ZM101.914 26.3733C101.914 25.7109 102.138 25.1703 102.586 24.7514C103.034 24.3228 103.633 24.1085 104.384 24.1085C105.134 24.1085 105.728 24.3228 106.166 24.7514C106.614 25.1703 106.838 25.7109 106.838 26.3733C106.838 27.0259 106.614 27.5665 106.166 27.9951C105.728 28.4238 105.134 28.6381 104.384 28.6381C103.633 28.6381 103.034 28.4238 102.586 27.9951C102.138 27.5665 101.914 27.0259 101.914 26.3733ZM117.972 46.5518C116.306 46.5518 114.879 46.2059 113.69 45.5143C112.512 44.8227 111.606 43.8973 110.973 42.7382C110.349 41.579 110.038 40.298 110.038 38.8953V38.3255C110.038 36.7474 110.335 35.3447 110.929 34.1174C111.533 32.8803 112.39 31.911 113.501 31.2097C114.611 30.5083 115.936 30.1577 117.475 30.1577C119.004 30.1577 120.29 30.4791 121.332 31.122C122.375 31.7649 123.164 32.6708 123.699 33.8397C124.235 34.9989 124.503 36.3627 124.503 37.931V39.8012H111.893V36.8351H120.163V36.4844C120.163 35.9389 120.066 35.4568 119.871 35.0379C119.676 34.619 119.379 34.2927 118.98 34.0589C118.59 33.8251 118.079 33.7082 117.446 33.7082C116.725 33.7082 116.145 33.9128 115.707 34.3219C115.269 34.731 114.947 35.2814 114.743 35.973C114.548 36.6646 114.45 37.4488 114.45 38.3255V38.8953C114.45 39.7038 114.601 40.4149 114.903 41.0286C115.205 41.6423 115.639 42.1245 116.204 42.4751C116.769 42.8161 117.451 42.9865 118.249 42.9865C118.999 42.9865 119.701 42.8502 120.353 42.5774C121.006 42.2949 121.561 41.8566 122.019 41.2624L124.152 43.7025C123.656 44.4136 122.886 45.0662 121.844 45.6605C120.811 46.2547 119.52 46.5518 117.972 46.5518ZM135.183 30.4499H137.96L137.112 35.4032L133.868 46.2595H131.545L131.925 41.9637L135.183 30.4499ZM132.743 41.9345L132.904 46.2595H130.186L126.212 30.4499H130.464L132.743 41.9345ZM143.074 30.4499H147.326L143.366 46.2595H140.648L140.838 41.73L143.074 30.4499ZM141.612 41.9053L142.007 46.2595H139.669L136.425 35.4324L135.607 30.4499H138.354L141.612 41.9053ZM158.43 41.8468C158.43 41.5546 158.342 41.3014 158.167 41.0871C158.001 40.8727 157.689 40.6731 157.232 40.488C156.774 40.3029 156.111 40.1178 155.244 39.9327C154.183 39.699 153.223 39.3824 152.366 38.983C151.518 38.5836 150.851 38.0673 150.364 37.4342C149.877 36.7913 149.634 36.0169 149.634 35.1109C149.634 34.2245 149.887 33.4063 150.393 32.6562C150.9 31.9062 151.626 31.3022 152.571 30.8444C153.525 30.3866 154.665 30.1577 155.99 30.1577C157.373 30.1577 158.566 30.3768 159.569 30.8152C160.573 31.2535 161.342 31.8575 161.878 32.627C162.414 33.3965 162.682 34.2781 162.682 35.2717H158.269C158.269 34.6775 158.084 34.1953 157.714 33.8251C157.353 33.4452 156.774 33.2553 155.975 33.2553C155.546 33.2553 155.171 33.3283 154.85 33.4745C154.528 33.6206 154.28 33.8154 154.105 34.0589C153.939 34.2927 153.856 34.5703 153.856 34.8918C153.856 35.184 153.949 35.4421 154.134 35.6662C154.319 35.8902 154.621 36.085 155.04 36.2506C155.459 36.4162 156.019 36.5624 156.72 36.689C157.84 36.9033 158.853 37.2004 159.759 37.5803C160.665 37.9504 161.386 38.4619 161.922 39.1145C162.458 39.7574 162.726 40.6146 162.726 41.6861C162.726 42.6213 162.448 43.459 161.893 44.1993C161.347 44.9299 160.568 45.5046 159.555 45.9235C158.551 46.3423 157.368 46.5518 156.004 46.5518C154.514 46.5518 153.257 46.2839 152.234 45.7481C151.212 45.2124 150.437 44.5354 149.911 43.7171C149.385 42.8891 149.122 42.0465 149.122 41.1893H153.301C153.33 41.7153 153.472 42.1439 153.725 42.4751C153.988 42.8063 154.324 43.0499 154.733 43.2057C155.152 43.3616 155.61 43.4395 156.107 43.4395C156.613 43.4395 157.037 43.3762 157.378 43.2496C157.728 43.1132 157.991 42.9281 158.167 42.6943C158.342 42.4508 158.43 42.1683 158.43 41.8468Z" fill="#FF9C28"/>
<path fill-rule="evenodd" clip-rule="evenodd" d="M39.7354 23.6601C39.7301 29.6577 37.0629 35.029 32.8579 38.6681L29.5332 41.9869L29.5384 41.9922L24.903 46.6276L24.8937 46.6182L19.8311 51.6717L6.6765 38.4937C6.08171 37.9653 5.52027 37.4021 4.99297 36.8071L4.89617 36.7102L4.90315 36.7024C1.84857 33.2056 -0.00445362 28.6317 8.03879e-06 23.6239C0.0082361 12.6519 8.91179 3.76415 19.8846 3.77393C30.8575 3.78371 39.7452 12.6873 39.7354 23.6601ZM24.8937 46.6182L10.7684 32.4308C5.70191 27.3643 5.71477 19.1218 10.7803 14.0563C15.8458 8.99084 24.0882 8.97798 29.1547 14.0445C34.2212 19.111 34.2083 27.3534 29.1428 32.4189L24.5851 36.9767L29.5332 41.9869L24.8937 46.6182ZM15.4038 27.7954L19.9497 32.3413L24.5075 27.7835C27.0205 25.2705 27.0182 21.1788 24.5193 18.6799C22.0204 16.1809 17.9286 16.1787 15.4156 18.6917C12.9026 21.2047 12.9049 25.2965 15.4038 27.7954Z" fill="#FF9C28"/>
</svg>
