<svg width="180" height="41" viewBox="0 0 180 41" fill="none" xmlns="http://www.w3.org/2000/svg">
<g clip-path="url(#clip0_23_322)">
<path d="M11.4694 30.196C11.4661 30.1994 11.4611 30.2044 11.4578 30.2077C11.4494 30.216 11.4427 30.2227 11.4361 30.231C11.3627 30.3077 11.291 30.3795 11.2159 30.4512C11.2126 30.4545 11.2059 30.4595 11.2026 30.4628C11.1426 30.5195 11.0825 30.5762 11.0208 30.6279C11.0092 30.6396 10.9975 30.6496 10.9858 30.658C10.9625 30.6796 10.9375 30.6996 10.9124 30.7213C10.8591 30.768 10.804 30.8114 10.7473 30.8547C10.7423 30.8581 10.7357 30.8631 10.7323 30.8681C10.7006 30.8914 10.669 30.9164 10.6373 30.9415C10.5506 31.0048 10.4622 31.0682 10.3721 31.1316C10.3038 31.1783 10.232 31.2233 10.1603 31.2666C10.0119 31.36 9.86017 31.4467 9.70341 31.5251C9.65672 31.5501 9.61169 31.5735 9.56333 31.5952C9.51664 31.6185 9.46994 31.6385 9.42158 31.6602C9.41324 31.6635 9.40657 31.6685 9.39823 31.6719C9.35821 31.6886 9.31819 31.7086 9.27817 31.7236C9.2298 31.7453 9.18144 31.7636 9.13308 31.7836C8.80622 31.912 8.46936 32.0154 8.11916 32.0888C8.07246 32.0988 8.02577 32.1071 7.98074 32.1155C7.80064 32.1505 7.62053 32.1772 7.43709 32.1955C7.3854 32.2005 7.3337 32.2055 7.282 32.2089C7.272 32.2105 7.26032 32.2105 7.25032 32.2105C7.1586 32.2189 7.06688 32.2239 6.97349 32.2255C6.90679 32.2272 6.83841 32.2289 6.76837 32.2289C6.67498 32.2289 6.5816 32.2272 6.48988 32.2239C6.4165 32.2205 6.34479 32.2155 6.27308 32.2105C6.19137 32.2055 6.10799 32.1972 6.02794 32.1872C5.9579 32.1788 5.88619 32.1705 5.81615 32.1588C5.69942 32.1422 5.58435 32.1221 5.46928 32.0988C5.39424 32.0838 5.32086 32.0654 5.24749 32.0471C5.21747 32.0421 5.18578 32.0338 5.15743 32.0254C5.08072 32.0071 5.00568 31.9854 4.9323 31.962C4.85392 31.9387 4.77721 31.9137 4.7005 31.8887C4.68883 31.8853 4.67882 31.8803 4.66882 31.877C4.5871 31.8486 4.50706 31.8203 4.42701 31.7886C4.41367 31.7836 4.40033 31.7769 4.38699 31.7719C4.30861 31.7419 4.2319 31.7086 4.15518 31.6752C4.0718 31.6385 3.98842 31.6002 3.90671 31.5585C3.81999 31.5168 3.73661 31.4718 3.65156 31.4267C3.57485 31.385 3.4998 31.34 3.42809 31.2967C3.2063 31.1632 2.99284 31.0132 2.78772 30.8531C2.76438 30.8364 2.7427 30.8164 2.71768 30.798C2.67933 30.768 2.64264 30.7363 2.60762 30.7063C2.57093 30.6746 2.53257 30.6429 2.49922 30.6113C2.44919 30.5696 2.4025 30.5245 2.35414 30.4795C2.119 30.2577 1.89887 30.0192 1.70042 29.7641C1.6604 29.7141 1.62038 29.6624 1.58202 29.609C1.46695 29.4539 1.36023 29.2922 1.2585 29.1271C0.881615 28.505 0.606455 27.8163 0.4547 27.0825C0.444694 27.0308 0.433021 26.9775 0.424683 26.9258C0.35631 26.5556 0.321289 26.1737 0.321289 25.7834L0.326292 12.5207V12.4373C0.326292 12.3189 0.329628 12.2022 0.339633 12.0854C0.342969 12.0304 0.349639 11.977 0.354642 11.9203C0.354642 11.9053 0.35631 11.892 0.357977 11.8786C0.36298 11.8319 0.369651 11.7886 0.376321 11.7436C0.387995 11.6635 0.403004 11.5851 0.418012 11.5084C0.434689 11.4317 0.453033 11.355 0.473044 11.2783C0.491388 11.2016 0.514735 11.1265 0.538082 11.0532C0.561429 10.9798 0.586444 10.9097 0.613126 10.8414C0.616461 10.828 0.621464 10.8163 0.626467 10.8047C0.643143 10.7563 0.663155 10.7096 0.683167 10.6613C0.706513 10.6079 0.72986 10.5562 0.753207 10.5045C0.769884 10.4645 0.789895 10.4261 0.809907 10.3878C0.831586 10.3411 0.853266 10.2977 0.87828 10.2544C0.909965 10.1943 0.944986 10.1359 0.980006 10.0759C1.7838 8.75348 3.23632 7.86963 4.89395 7.86963C7.41708 7.86963 9.46327 9.91583 9.46327 12.4373L9.45994 19.9183V19.9267L9.45827 24.6795C9.45827 25.3382 9.40657 26.0252 9.44159 26.6823C9.43993 26.6956 9.43993 26.7106 9.43993 26.724C9.43993 26.7974 9.44159 26.8707 9.44826 26.9424C9.4516 27.0092 9.4566 27.0759 9.46327 27.1426C9.47661 27.276 9.49662 27.4061 9.52331 27.5361C9.53331 27.5828 9.54165 27.6278 9.55499 27.6745C9.57667 27.7629 9.59835 27.848 9.62837 27.9347C9.6317 27.9514 9.63837 27.9697 9.64505 27.9881C9.69507 28.1365 9.75344 28.2832 9.82015 28.4233C9.83682 28.4617 9.85684 28.5 9.87518 28.5367C9.88018 28.5501 9.88685 28.5617 9.89686 28.5751C9.91854 28.6168 9.93855 28.6568 9.96356 28.6968C9.9769 28.7235 9.99191 28.7502 10.0102 28.7769C10.0353 28.8169 10.0603 28.8569 10.0853 28.8953C10.0903 28.9036 10.097 28.9119 10.102 28.9219C10.1286 28.962 10.1537 28.9986 10.182 29.037C10.2004 29.0654 10.2204 29.092 10.242 29.1187C10.3538 29.2655 10.4739 29.4039 10.6039 29.534C10.6323 29.5623 10.6606 29.5907 10.6923 29.6173C10.719 29.644 10.7457 29.669 10.7724 29.6924C10.784 29.7057 10.7974 29.7174 10.8107 29.7274C10.8407 29.7541 10.8707 29.7791 10.9024 29.8058C10.9391 29.8358 10.9775 29.8658 11.0158 29.8942C11.0625 29.9309 11.1092 29.9642 11.1576 29.9976C11.256 30.0693 11.361 30.1343 11.4694 30.196Z" fill="#1BB394"/>
<path d="M23.6491 30.1963C23.6458 30.1996 23.6408 30.2046 23.6375 30.2079C23.6291 30.2163 23.6225 30.2229 23.6158 30.2313C23.5424 30.308 23.4707 30.3797 23.3957 30.4514C23.3923 30.4547 23.3857 30.4598 23.3823 30.4631C23.3223 30.5198 23.2622 30.5765 23.2005 30.6282C23.1889 30.6399 23.1772 30.6499 23.1655 30.6582C23.1422 30.6799 23.1172 30.6999 23.0921 30.7216C23.0388 30.7683 22.9838 30.8116 22.9271 30.855C22.9221 30.8583 22.9154 30.8633 22.912 30.8683C22.8804 30.8917 22.8487 30.9167 22.817 30.9417C22.7303 31.0051 22.6419 31.0684 22.5518 31.1318C22.4835 31.1785 22.4118 31.2235 22.34 31.2669C22.1916 31.3603 22.0399 31.447 21.8831 31.5254C21.8364 31.5504 21.7914 31.5737 21.743 31.5954C21.6963 31.6188 21.6496 31.6388 21.6013 31.6605C21.5929 31.6638 21.5863 31.6688 21.5779 31.6721C21.5379 31.6888 21.4979 31.7088 21.4579 31.7238C21.4095 31.7455 21.3611 31.7638 21.3128 31.7839C20.9859 31.9123 20.6491 32.0157 20.2989 32.089C20.2522 32.099 20.2055 32.1074 20.1604 32.1157C19.9803 32.1507 19.8002 32.1774 19.6168 32.1958C19.5651 32.2008 19.5134 32.2058 19.4617 32.2091C19.4517 32.2108 19.44 32.2108 19.43 32.2108C19.3383 32.2191 19.2466 32.2241 19.1532 32.2258C19.0865 32.2274 19.0181 32.2291 18.9481 32.2291C18.8547 32.2291 18.7613 32.2274 18.6696 32.2241C18.5962 32.2208 18.5245 32.2158 18.4528 32.2108C18.3711 32.2058 18.2877 32.1974 18.2076 32.1874C18.1376 32.1791 18.0659 32.1707 17.9959 32.1591C17.8791 32.1424 17.7641 32.1224 17.649 32.099C17.5739 32.084 17.5006 32.0657 17.4272 32.0473C17.3972 32.0423 17.3655 32.034 17.3371 32.0257C17.2604 32.0073 17.1854 31.9856 17.112 31.9623C17.0336 31.9389 16.9569 31.9139 16.8802 31.8889C16.8685 31.8856 16.8585 31.8806 16.8485 31.8772C16.7668 31.8489 16.6868 31.8205 16.6067 31.7889C16.5934 31.7839 16.58 31.7772 16.5667 31.7722C16.4883 31.7422 16.4116 31.7088 16.3349 31.6755C16.2515 31.6388 16.1681 31.6004 16.0864 31.5587C15.9997 31.517 15.9163 31.472 15.8313 31.427C15.7545 31.3853 15.6795 31.3403 15.6078 31.2969C15.386 31.1635 15.1725 31.0134 14.9674 30.8533C14.9441 30.8366 14.9224 30.8166 14.8974 30.7983C14.859 30.7683 14.8223 30.7366 14.7873 30.7066C14.7506 30.6749 14.7123 30.6432 14.6789 30.6115C14.6289 30.5698 14.5822 30.5248 14.5338 30.4798C14.2987 30.258 14.0786 30.0195 13.8801 29.7643C13.8401 29.7143 13.8001 29.6626 13.7617 29.6093C13.6467 29.4542 13.5399 29.2924 13.4382 29.1273C13.0613 28.5053 12.7862 27.8165 12.6344 27.0828C12.6244 27.0311 12.6127 26.9777 12.6044 26.926C12.536 26.5558 12.501 26.1739 12.501 25.7837L12.506 12.521V12.4376C12.506 12.3192 12.5093 12.2024 12.5193 12.0857C12.5227 12.0307 12.5293 11.9773 12.5343 11.9206C12.5343 11.9056 12.536 11.8923 12.5377 11.8789C12.5427 11.8322 12.5494 11.7889 12.556 11.7438C12.5677 11.6638 12.5827 11.5854 12.5977 11.5087C12.6144 11.432 12.6327 11.3553 12.6527 11.2786C12.6711 11.2019 12.6944 11.1268 12.7178 11.0534C12.7411 10.9801 12.7661 10.91 12.7928 10.8417C12.7962 10.8283 12.8012 10.8166 12.8062 10.805C12.8228 10.7566 12.8429 10.7099 12.8629 10.6615C12.8862 10.6082 12.9096 10.5565 12.9329 10.5048C12.9496 10.4648 12.9696 10.4264 12.9896 10.3881C13.0113 10.3414 13.033 10.298 13.058 10.2546C13.0897 10.1946 13.1247 10.1362 13.1597 10.0762C13.9585 8.75543 15.411 7.87158 17.0686 7.87158C19.5918 7.87158 21.638 9.91778 21.638 12.4393L21.6346 19.9203V19.9286L21.633 24.6814C21.633 25.3401 21.5813 26.0272 21.6163 26.6842C21.6146 26.6976 21.6146 26.7126 21.6146 26.7259C21.6146 26.7993 21.6163 26.8727 21.623 26.9444C21.6263 27.0111 21.6313 27.0778 21.638 27.1445C21.6513 27.2779 21.6713 27.408 21.698 27.538C21.708 27.5847 21.7163 27.6298 21.7297 27.6765C21.7514 27.7648 21.773 27.8499 21.8031 27.9366C21.8064 27.9533 21.8131 27.9716 21.8197 27.99C21.8698 28.1384 21.9281 28.2851 21.9948 28.4252C22.0115 28.4636 22.0315 28.5019 22.0499 28.5386C22.0549 28.552 22.0615 28.5636 22.0716 28.577C22.0932 28.6187 22.1132 28.6587 22.1383 28.6987C22.1516 28.7254 22.1666 28.7521 22.185 28.7788C22.21 28.8188 22.235 28.8588 22.26 28.8972C22.265 28.9055 22.2717 28.9138 22.2767 28.9239C22.3034 28.9639 22.3284 29.0006 22.3567 29.0389C22.3751 29.0673 22.3951 29.094 22.4168 29.1206C22.5285 29.2674 22.6486 29.4058 22.7786 29.5359C22.807 29.5642 22.8353 29.5926 22.867 29.6193C22.8937 29.6459 22.9204 29.671 22.9471 29.6943C22.9587 29.7076 22.9721 29.7193 22.9854 29.7293C23.0154 29.756 23.0455 29.781 23.0771 29.8077C23.1138 29.8377 23.1522 29.8677 23.1905 29.8961C23.2372 29.9328 23.2839 29.9661 23.3323 29.9995C23.4357 30.0695 23.5407 30.1346 23.6491 30.1963Z" fill="#1BB394"/>
<path d="M29.2437 29.1671C26.7223 29.1671 24.6777 27.1226 24.6777 24.6011V12.4356C24.6777 9.91416 26.7223 7.86963 29.2437 7.86963C31.7652 7.86963 33.8097 9.91416 33.8097 12.4356V24.5994C33.8097 27.1226 31.7652 29.1671 29.2437 29.1671Z" fill="#1BB394"/>
<path d="M106.527 28.0167C102.742 28.0167 100.023 25.7371 100.023 22.6003H103.182C103.182 24.2112 104.625 25.3602 106.632 25.3602C108.347 25.3602 109.414 24.503 109.414 23.3107C109.414 21.9099 107.803 21.6997 105.964 21.4696C103.015 21.0927 100.17 20.4657 100.17 16.9936C100.17 14.0869 102.658 12.0791 106.255 12.0791C109.873 12.0791 112.488 14.2537 112.488 17.2438H109.434C109.456 15.7796 108.138 14.734 106.339 14.734C104.686 14.734 103.599 15.5078 103.599 16.5951C103.599 17.9959 105.083 18.206 106.966 18.4562C109.851 18.7914 112.843 19.4184 112.843 22.8471C112.843 25.9055 110.313 28.0167 106.527 28.0167Z" fill="#041E39"/>
<path d="M59.1534 24.9062L62.5054 12.082H66.326L61.9918 27.9897H56.5836L53.8804 16.7514L51.1771 27.9897H45.7473L41.4131 12.082H45.2337L48.629 24.9062L51.8242 12.082H55.9799L59.1534 24.9062Z" fill="#041E39"/>
<path d="M72.4908 24.9746H80.2671V27.9913H68.8721V12.082H80.0436V15.0988H72.4908V18.4941H79.1497V21.1757H72.4908V24.9746Z" fill="#041E39"/>
<path d="M83.127 27.9897V12.082H90.8348C94.1417 12.082 96.4647 13.9148 96.4647 16.3946C96.4647 18.0255 95.5259 19.3446 94.1634 19.7232C95.7944 20.1251 96.9117 21.6676 96.9117 23.5654C96.9117 26.2236 94.5203 27.9897 91.1033 27.9897H83.127ZM86.8808 14.9204V18.4724H90.1661C91.5952 18.4724 92.6242 17.757 92.6242 16.7081C92.6242 15.6591 91.5969 14.9204 90.1661 14.9204H86.8808ZM90.3428 21.0189H86.8791V25.153H90.3428C91.9288 25.153 93.0694 24.3042 93.0694 23.1201C93.0694 21.8911 91.9288 21.0189 90.3428 21.0189Z" fill="#041E39"/>
<path d="M115.993 27.9897V12.082H119.747V18.2256H126.315V12.082H130.069V27.9897H126.315V21.2657H119.747V27.9913H115.993V27.9897Z" fill="#041E39"/>
<path d="M136.213 27.9897H132.259L137.599 12.082H143.05L148.368 27.9897H144.436L143.564 25.3531H137.085L136.213 27.9897ZM137.822 22.6732H142.827L140.323 15.3006L137.822 22.6732Z" fill="#041E39"/>
<path d="M154.333 27.9897H150.58V12.082H158.287C161.975 12.082 164.543 14.2716 164.543 17.4452C164.543 19.5898 163.135 21.3775 161.057 22.0479L164.9 27.9913H160.699L157.57 22.5398H154.33V27.9897H154.333ZM154.333 14.9204V19.9033H157.685C159.45 19.9033 160.791 18.9194 160.791 17.4452C160.791 15.8359 159.45 14.9204 157.685 14.9204H154.333Z" fill="#041E39"/>
<path d="M171.403 24.9746H179.18V27.9913H167.785V12.082H178.956V15.0988H171.403V18.4941H178.062V21.1757H171.403V24.9746Z" fill="#041E39"/>
</g>
<defs>
<clipPath id="clip0_23_322">
<rect width="180" height="26" fill="white" transform="translate(0 7.60791)"/>
</clipPath>
</defs>
</svg>
