<svg width="180" height="41" viewBox="0 0 180 41" fill="none" xmlns="http://www.w3.org/2000/svg">
<g clip-path="url(#clip0_23_356)">
<mask id="mask0_23_356" style="mask-type:luminance" maskUnits="userSpaceOnUse" x="0" y="4" width="160" height="32">
<path d="M160 4.60791H0V35.856H160V4.60791Z" fill="white"/>
</mask>
<g mask="url(#mask0_23_356)">
<path d="M55.5078 29.9342V7.46143H59.6374V29.9342H55.5078Z" fill="#001A52"/>
<path d="M63.3984 29.9342V7.46143H72.2672C74.0678 7.46143 75.5676 7.81911 76.7626 8.53853C77.9576 9.25795 78.8518 10.1887 79.4492 11.3308C80.0467 12.477 80.3434 13.6639 80.3434 14.8995C80.3434 16.1351 80.0467 17.326 79.4492 18.4682C78.8518 19.6103 77.9576 20.5492 76.7626 21.2767C75.5676 22.0043 74.0678 22.3701 72.2672 22.3701H67.528V29.9301H63.3984V29.9342ZM72.2347 11.0463H67.528V18.7893H72.2347C73.1248 18.7893 73.8646 18.6023 74.4499 18.2284C75.0352 17.8544 75.4782 17.3667 75.7709 16.7692C76.0635 16.1717 76.2098 15.558 76.2098 14.932C76.2098 14.3061 76.0635 13.668 75.7709 13.0786C75.4782 12.4933 75.0352 12.0056 74.4499 11.6194C73.8605 11.2333 73.1248 11.0423 72.2347 11.0423V11.0463Z" fill="#001A52"/>
<path d="M83.0469 29.9342V7.46143H91.7937C93.4114 7.46143 94.7933 7.7622 95.9395 8.35562C97.0817 8.95311 97.9555 9.76195 98.553 10.7862C99.1505 11.8105 99.4472 12.9567 99.4472 14.2329C99.4472 15.6718 99.0611 16.9521 98.2929 18.0739C97.5247 19.1957 96.411 20.0127 94.9519 20.5167L100.114 29.9301H95.529L90.7288 21.0004H87.1764V29.9301H83.0469V29.9342ZM91.7328 11.0463H87.1764V17.6349H91.7328C92.8871 17.6349 93.7691 17.3057 94.3747 16.6473C94.9803 15.9888 95.2852 15.2165 95.2852 14.3223C95.2852 13.4281 94.9803 12.664 94.3747 12.0137C93.7691 11.3674 92.8871 11.0423 91.7328 11.0423V11.0463Z" fill="#001A52"/>
<path d="M109.806 30.2386C108.046 30.2386 106.546 29.8443 105.311 29.0558C104.075 28.2673 103.14 27.2389 102.502 25.9749C101.864 24.7108 101.547 23.3492 101.547 21.89C101.547 20.4309 101.864 19.0692 102.502 17.8052C103.14 16.5411 104.075 15.5128 105.311 14.7243C106.546 13.9358 108.046 13.5415 109.806 13.5415C111.566 13.5415 113.09 13.9358 114.314 14.7243C115.537 15.5128 116.468 16.5411 117.106 17.8052C117.744 19.0692 118.061 20.4309 118.061 21.89C118.061 23.3492 117.744 24.7108 117.106 25.9749C116.468 27.2389 115.537 28.2673 114.314 29.0558C113.09 29.8443 111.586 30.2386 109.806 30.2386ZM109.806 26.8691C110.716 26.8691 111.481 26.6374 112.098 26.17C112.716 25.7026 113.188 25.0929 113.509 24.3328C113.834 23.5727 113.997 22.7598 113.997 21.89C113.997 21.0202 113.834 20.1789 113.509 19.431C113.184 18.6831 112.716 18.0734 112.098 17.6101C111.481 17.1427 110.716 16.911 109.806 16.911C108.896 16.911 108.156 17.1427 107.53 17.6101C106.9 18.0775 106.424 18.6831 106.103 19.431C105.778 20.1789 105.615 20.9999 105.615 21.89C105.615 22.7802 105.778 23.5768 106.103 24.3328C106.428 25.0929 106.904 25.7066 107.53 26.17C108.156 26.6374 108.916 26.8691 109.806 26.8691Z" fill="#001A52"/>
<path d="M121.13 35.8557C120.602 35.8557 120.008 35.8151 119.338 35.7338V32.4253C119.943 32.4862 120.451 32.5147 120.858 32.5147C121.89 32.5147 122.744 32.3481 123.422 32.0148C124.101 31.6815 124.674 31.0596 125.138 30.1491L119.094 13.8423H123.195L127.235 25.3205L131.214 13.8423H135.315L129.426 29.5435C128.617 31.6896 127.572 33.2788 126.296 34.3112C125.02 35.3436 123.301 35.8598 121.134 35.8598L121.13 35.8557Z" fill="#001A52"/>
<path d="M143.301 13.5337C144.334 13.5337 145.183 13.7003 145.854 14.0336C146.52 14.3669 147.049 14.7327 147.431 15.127C147.817 15.5212 148.077 15.8423 148.219 16.0821H148.402V13.8345H152.442V29.934H148.402V27.6864H148.219C148.077 27.9302 147.813 28.2513 147.431 28.6578C147.045 29.0642 146.52 29.426 145.854 29.7511C145.187 30.0763 144.334 30.2389 143.301 30.2389C142.106 30.2389 141.066 29.9991 140.172 29.5235C139.282 29.048 138.538 28.4098 137.94 27.6091C137.343 26.8084 136.896 25.9142 136.603 24.9225C136.31 23.9307 136.164 22.9187 136.164 21.8863C136.164 20.8539 136.31 19.8418 136.603 18.8501C136.896 17.8583 137.343 16.9641 137.94 16.1634C138.538 15.3627 139.282 14.7246 140.172 14.2491C141.062 13.7735 142.106 13.5337 143.301 13.5337ZM144.366 16.8422C143.456 16.8422 142.692 17.0901 142.074 17.586C141.456 18.0819 140.997 18.7159 140.692 19.4841C140.387 20.2523 140.237 21.0531 140.237 21.8822C140.237 22.7114 140.387 23.5121 140.692 24.2803C140.997 25.0485 141.456 25.6825 142.074 26.1784C142.692 26.6743 143.456 26.9222 144.366 26.9222C145.277 26.9222 146.037 26.6743 146.642 26.1784C147.248 25.6825 147.703 25.0485 148.008 24.2803C148.313 23.5121 148.463 22.7114 148.463 21.8822C148.463 21.0531 148.313 20.2523 148.008 19.4841C147.703 18.7159 147.248 18.0819 146.642 17.586C146.033 17.0901 145.277 16.8422 144.366 16.8422Z" fill="#001A52"/>
<path d="M155.969 29.9343L156.001 6.85596H160.009V29.9343H155.969Z" fill="#001A52"/>
<path d="M22.5547 29.9342L37.8861 9.33922C38.3332 8.73767 39.2843 9.05471 39.2843 9.80258V29.9342H22.5547Z" fill="#27D9E5" fill-opacity="0.65"/>
<path d="M16.7296 29.9342L1.3982 9.33922C0.951099 8.73767 0 9.05471 0 9.80258V29.9342H16.7296Z" fill="#27D9E5" fill-opacity="0.65"/>
<path d="M19.6438 26.036L22.5459 29.9339H39.2877L20.8876 5.23381C20.2657 4.40058 19.0179 4.40058 18.396 5.23381L0 29.9339H16.7418L19.6438 26.036Z" fill="#27D9E5" fill-opacity="0.9"/>
</g>
</g>
<defs>
<clipPath id="clip0_23_356">
<rect width="160" height="32" fill="white" transform="translate(0 4.60791)"/>
</clipPath>
</defs>
</svg>
