<svg width="180" height="41" viewBox="0 0 180 41" fill="none" xmlns="http://www.w3.org/2000/svg">
<g clip-path="url(#clip0_23_42)">
<mask id="mask0_23_42" style="mask-type:luminance" maskUnits="userSpaceOnUse" x="0" y="9" width="105" height="22">
<path d="M104.211 9.60791H0V30.6252H104.211V9.60791Z" fill="white"/>
</mask>
<g mask="url(#mask0_23_42)">
<path fill-rule="evenodd" clip-rule="evenodd" d="M103.228 10.1548L95.4516 19.6087L104.211 30.0783H96.6793L91.4671 23.2288L86.1735 30.0783H78.6696L87.4015 19.6087L79.6519 10.1548H87.1559L91.4399 16.223L95.724 10.1548H103.228ZM58.9135 23.8017C58.9135 22.3172 59.8958 20.7807 64.0162 20.6505C66.1446 20.7286 68.7097 21.1713 70.3196 21.8224C69.7465 24.0621 67.6182 26.7186 63.3613 26.9531C59.9777 26.7707 58.9135 25.2602 58.9135 23.8017ZM65.517 9.60791C65.326 9.60791 65.1077 9.60791 64.9167 9.60791C64.8076 9.60791 64.6711 9.60791 64.5619 9.60791C64.4801 9.60791 64.3983 9.60791 64.3164 9.60791C55.9118 9.60791 53.8381 13.5145 53.4014 16.6397H59.5957C59.7866 14.8427 61.151 13.1759 64.7803 12.9936C68.7915 13.1499 70.456 15.025 70.4834 17.9158V18.3586C68.1912 17.7856 65.8172 17.4991 63.4159 17.4731C63.2249 17.4731 63.0339 17.4731 62.8429 17.4731C62.7337 17.4731 62.5973 17.4731 62.4881 17.4731C62.4062 17.4731 62.3244 17.4731 62.2425 17.4731C54.8476 17.4731 52.6373 20.5723 52.6373 23.9579C52.6373 26.927 54.2746 30.5992 61.4512 30.5992C61.5603 30.5992 61.6968 30.5992 61.806 30.5992C61.8332 30.5992 61.8879 30.5992 61.9151 30.5992C62.1607 30.5992 62.3789 30.5992 62.6246 30.5992C65.9262 30.5992 68.7097 29.4011 70.5106 27.3436V27.4478V30.0522H76.814V19.0097C76.814 13.9051 74.9039 9.60791 65.517 9.60791ZM30.7257 20.0515V20.1556C30.7257 24.5049 33.3725 26.5883 37.3565 26.7707C41.3404 26.5883 43.9873 24.5049 43.9873 20.1556V20.0515C43.9873 15.7282 41.3404 13.6707 37.3565 13.4884C33.3725 13.6707 30.7257 15.7282 30.7257 20.0515ZM37.9567 9.60791C45.6519 9.60791 50.3453 13.3582 50.3453 19.9733V20.2077C50.3453 26.8488 45.6519 30.5992 37.9567 30.5992C37.875 30.5992 37.793 30.5992 37.7111 30.5992C37.6021 30.5992 37.4657 30.5992 37.3565 30.5992C37.1654 30.5992 36.9745 30.5992 36.7561 30.5992C29.0883 30.5992 24.3677 26.8488 24.3677 20.2077V19.9733C24.3677 13.3582 29.0611 9.60791 36.7561 9.60791C36.838 9.60791 36.9198 9.60791 37.0017 9.60791C37.1109 9.60791 37.2473 9.60791 37.3565 9.60791C37.5475 9.60791 37.7657 9.60791 37.9567 9.60791ZM6.931 15.4157C6.931 17.2647 8.67739 17.7856 12.6068 18.2284C19.7833 18.9315 22.7031 20.7286 22.7031 24.3748C22.7031 28.3333 19.2649 30.6252 12.1702 30.6252H10.9695C3.21991 30.6252 0 27.4739 0 23.5413H6.08508C6.2761 25.8852 8.45909 26.927 11.7335 27.0311C15.1171 26.927 16.2905 26.0155 16.2905 24.6352C16.2905 22.8121 14.4897 22.2651 10.1237 21.6922C3.52007 20.8588 0.51846 19.2962 0.51846 15.5719C0.51846 12.3685 2.83788 9.60791 10.2328 9.60791C10.3147 9.60791 10.4238 9.60791 10.5056 9.60791C10.5875 9.60791 10.6966 9.60791 10.7785 9.60791C10.9968 9.60791 11.1878 9.60791 11.4062 9.60791C19.1285 9.60791 22.2119 12.9415 22.2665 16.1188H16.0177C15.8267 14.5562 14.1349 13.3322 10.6694 13.2019C7.94063 13.3061 6.931 14.1656 6.931 15.4157Z" fill="black"/>
</g>
</g>
<defs>
<clipPath id="clip0_23_42">
<rect width="104.211" height="22" fill="white" transform="translate(0 9.60791)"/>
</clipPath>
</defs>
</svg>
