<svg width="180" height="41" viewBox="0 0 180 41" fill="none" xmlns="http://www.w3.org/2000/svg">
<g clip-path="url(#clip0_23_192)">
<g clip-path="url(#clip1_23_192)">
<path d="M41.1511 3.10259C41.6056 3.96439 41.3783 4.69011 41.0602 5.46119C40.5603 6.73121 40.6967 7.95587 41.6056 8.9991C42.5145 10.0877 43.7869 10.2238 45.1048 9.95161C46.9226 9.54339 47.9678 7.8198 47.6951 5.91477C47.5588 5.00762 47.0135 4.10046 47.5133 3.10259C47.0589 3.32938 47.0589 3.32938 46.5136 4.23653C46.0137 3.64688 45.5592 3.01187 45.0139 2.37686C44.5595 1.87793 44.105 1.42435 44.3777 0.60791C43.8323 0.880057 43.5597 1.24292 43.3779 1.69649C43.2416 2.15007 43.1507 2.60365 43.0598 3.05723C42.9689 3.51081 42.7417 3.91903 42.2872 4.19117C42.0146 3.69224 41.7419 3.32938 41.1511 3.10259Z" fill="#3D7FFC"/>
<path d="M2.47064 29.5348V8.61439L0 8.2082V6.27098L6.44243 5.4586L7.53702 5.30371V6.146V13.256C7.78721 13.006 8.09995 12.7248 8.47523 12.5061C8.81925 12.2561 9.22581 12.0374 9.63237 11.8499C10.0702 11.6625 10.508 11.5062 11.0084 11.3812C11.5088 11.2563 12.0405 11.1938 12.6034 11.1938C13.6042 11.1938 14.5424 11.35 15.418 11.6937C16.2937 12.0374 17.0756 12.5686 17.7323 13.2872C18.3891 14.0371 18.9207 14.9745 19.3273 16.1618C19.7026 17.3491 19.9215 18.7552 19.9215 20.4737C19.9215 21.9422 19.7026 23.2857 19.2647 24.5668C18.8269 25.8479 18.1702 26.9102 17.3258 27.8476C16.4814 28.7849 15.4493 29.5036 14.2609 30.0347C13.0412 30.5659 11.6964 30.8471 10.164 30.8471C9.10071 30.8471 8.13122 30.7846 7.22428 30.6909C6.34861 30.5972 5.56676 30.4722 4.91001 30.316C4.25325 30.1597 3.7216 30.0347 3.31504 29.8785C2.90848 29.7223 2.59574 29.6286 2.47064 29.5348ZM10.508 14.2246C9.82001 14.2246 9.22581 14.3496 8.72543 14.5995C8.22504 14.8495 7.81848 15.1307 7.53702 15.4431V27.8163C7.69339 28.0663 7.97485 28.285 8.41269 28.41C8.85052 28.5662 9.38218 28.6287 9.94511 28.6287C10.6957 28.6287 11.3524 28.4412 11.8841 28.035C12.447 27.6289 12.8849 27.0977 13.2601 26.4103C13.6354 25.7229 13.8856 24.9105 14.0733 24.0044C14.2609 23.0983 14.3547 22.0984 14.3547 21.0673C14.3547 20.005 14.2922 19.0364 14.1358 18.1615C13.9794 17.3179 13.7605 16.5992 13.4165 16.0056C13.1038 15.4119 12.6972 14.9745 12.1968 14.662C11.759 14.3808 11.1648 14.2246 10.508 14.2246Z" fill="#3D7FFC"/>
<path d="M22.6523 30.2896V28.0712L25.0292 27.7588V15.0731L22.7774 14.3857V11.8861L28.4067 11.0737H28.5006L29.3762 11.7924V13.1672L29.345 15.7293H29.4075C29.5326 15.3856 29.7828 14.9482 30.1268 14.417C30.4708 13.8858 30.9087 13.3546 31.409 12.8547C31.9094 12.3548 32.5036 11.9174 33.1604 11.5737C33.8171 11.23 34.5364 11.0425 35.3183 11.0425C35.6623 11.0425 35.9125 11.0425 36.1001 11.0737C36.2878 11.105 36.4441 11.1362 36.5692 11.1675V16.8854C36.4441 16.7916 36.1314 16.6979 35.631 16.6042C35.1306 16.5104 34.5052 16.4479 33.8171 16.4479C33.4418 16.4479 33.0353 16.4792 32.66 16.5104C32.2847 16.5417 31.9094 16.6042 31.5654 16.6979C31.2214 16.7604 30.9399 16.8541 30.6585 16.9479C30.377 17.0416 30.1894 17.1353 30.033 17.2291V27.7275L34.1299 28.1337V30.2896H22.6523Z" fill="#3D7FFC"/>
<path d="M40.0762 30.4723V28.2539L42.4843 27.9415V15.2558L40.2638 14.5372V12.0688L46.331 11.2564L47.6132 11.1299V11.9751V27.9102L49.99 28.2539V30.4723H40.0762Z" fill="#3D7FFC"/>
<path d="M61.0159 24.3777C60.0769 24.3777 59.2026 24.3127 58.4255 24.1826C58.2313 24.3777 58.0694 24.6054 57.9398 24.8656C57.8103 25.1258 57.7456 25.4185 57.7456 25.7763C57.7456 26.1666 57.8103 26.4919 57.9722 26.7521C58.1341 26.9797 58.3608 27.1749 58.6846 27.305C59.0084 27.4351 59.3969 27.5327 59.915 27.5652C60.433 27.5977 61.0159 27.6302 61.6958 27.6302H65.0957C67.5565 27.6302 69.3698 28.0531 70.6002 28.8662C71.7982 29.7118 72.4134 31.0779 72.4134 32.9643C72.4134 34.1027 72.122 35.176 71.5068 36.1193C70.924 37.0625 70.1145 37.8431 69.0784 38.5261C68.0746 39.1766 66.8766 39.697 65.549 40.0548C64.2214 40.4126 62.8291 40.6077 61.3721 40.6077H61.3397C59.7207 40.6077 58.3608 40.4776 57.2275 40.1849C56.0942 39.8922 55.1552 39.5019 54.4105 39.014C53.6657 38.5261 53.1477 37.9081 52.7915 37.2251C52.4353 36.5421 52.2734 35.7615 52.2734 34.9484C52.2734 34.428 52.3706 33.9401 52.5649 33.4522C52.7591 32.9969 53.0182 32.574 53.342 32.1837C53.6658 31.7934 54.0219 31.4682 54.4752 31.1755C54.8962 30.8827 55.3495 30.6551 55.8028 30.4924C55.1552 30.1347 54.6371 29.7118 54.281 29.1914C53.9248 28.671 53.7629 28.0531 53.7629 27.3375C53.7629 26.4593 53.9895 25.7438 54.4429 25.1258C54.8962 24.5404 55.479 23.9874 56.1913 23.5321C55.0257 23.0117 54.1838 22.2636 53.6334 21.2879C53.0829 20.3121 52.7915 19.1737 52.7915 17.8727C52.7915 16.8319 53.0182 15.9212 53.4715 15.0756C53.9248 14.2299 54.5724 13.5144 55.3495 12.9289C56.159 12.3435 57.0656 11.8881 58.1341 11.5629C59.2026 11.2376 60.3359 11.075 61.5339 11.075H61.5663C64.4157 11.075 66.5204 11.6279 67.9127 12.7338C68.0746 12.5386 68.3013 12.3435 68.5603 12.1483C68.8193 11.9532 69.1431 11.758 69.4993 11.5954C69.8555 11.4328 70.244 11.3027 70.6649 11.2051C71.0859 11.1075 71.5392 11.0425 72.0249 11.0425H72.8344V14.8804H69.4669C69.5964 15.2382 69.6936 15.6285 69.7583 16.0188C69.8231 16.4091 69.8555 16.8645 69.8555 17.3198C69.8555 18.3606 69.6288 19.3038 69.2079 20.1495C68.7869 20.9951 68.1717 21.7432 67.3946 22.3937C66.6175 23.0117 65.6785 23.4996 64.61 23.8573C63.5091 24.2151 62.3434 24.3777 61.0159 24.3777ZM60.1416 31.3056C59.3969 31.3056 58.7169 31.2405 58.1017 31.1429C57.8751 31.4031 57.6484 31.7284 57.4541 32.1187C57.2599 32.509 57.1627 33.0944 57.1627 33.7775C57.1627 34.5581 57.2599 35.2086 57.4541 35.729C57.6484 36.2494 57.9722 36.7047 58.3608 37.03C58.7493 37.3552 59.2674 37.6154 59.8502 37.7455C60.433 37.9081 61.113 37.9732 61.8901 37.9732H61.9225C62.6025 37.9732 63.2824 37.9081 63.9624 37.7455C64.61 37.5829 65.2252 37.3552 65.7433 37.03C66.2613 36.7047 66.6823 36.2819 66.9737 35.794C67.2975 35.3061 67.4594 34.7207 67.4594 34.0702C67.4594 33.5823 67.3946 33.127 67.2975 32.7692C67.2003 32.4114 67.0061 32.1187 66.7147 31.891C66.4232 31.6633 66.0671 31.5007 65.5814 31.4031C65.0957 31.3056 64.4805 31.2405 63.7357 31.2405H60.1416V31.3056ZM61.4368 22.101C62.0196 22.101 62.5053 21.9709 62.8939 21.7432C63.2824 21.5155 63.5739 21.1903 63.8005 20.8C64.0272 20.4097 64.1567 19.9218 64.2538 19.3689C64.351 18.816 64.3833 18.2305 64.3833 17.6451C64.3833 16.1489 64.1567 15.0431 63.671 14.36C63.1853 13.677 62.4082 13.3518 61.2749 13.3518H61.2425C60.174 13.3518 59.3969 13.7095 58.9112 14.3926C58.4255 15.0756 58.1665 16.0839 58.1665 17.4824C58.1665 18.1655 58.2312 18.7834 58.3284 19.3364C58.4255 19.8893 58.6198 20.3772 58.8465 20.8C59.1055 21.1903 59.4293 21.5155 59.8502 21.7432C60.2712 21.9709 60.7892 22.101 61.4368 22.101Z" fill="#3D7FFC"/>
<path d="M74.6663 30.4722V28.2538L76.6992 27.9101V8.43411L74.2285 8.02792V6.0907L80.6397 5.27832L81.0123 5.21582H81.7093L81.7655 11.2875L81.7093 13.6516C81.9908 13.3704 82.1721 13.3497 82.6412 13.0373C83.1103 12.7248 83.5794 12.4436 84.1424 12.1937C84.7053 11.9437 85.3308 11.725 85.9875 11.5375C86.6443 11.3813 87.3636 11.2875 88.0829 11.2875C89.1462 11.2875 90.0531 11.4438 90.7412 11.725C91.4292 12.0062 91.9921 12.4749 92.4299 13.0998C92.8678 13.7247 93.118 14.5058 93.3056 15.4432C93.462 16.3805 93.5558 17.5054 93.5558 18.7864V27.9101L95.8701 28.2538V30.4722H86.6443V28.3163L88.4894 27.9414V18.7552C88.4894 18.0053 88.4582 17.3492 88.3643 16.7867C88.3018 16.2243 88.1454 15.7869 87.9265 15.4119C87.7076 15.037 87.4261 14.787 87.0508 14.6308C86.6755 14.4746 86.1752 14.3808 85.581 14.3808C85.2369 14.3808 84.8929 14.4121 84.5176 14.5058C84.1424 14.5996 83.7983 14.6933 83.4856 14.787C83.1416 14.912 82.8288 15.037 82.5474 15.1932C82.2659 15.3494 82.0157 15.5057 81.7968 15.6619V27.9414L84.0485 28.2851V30.5035H74.6663V30.4722Z" fill="#3D7FFC"/>
<path d="M99.5428 26.647V14.5238H97.2285V12.6491C97.3223 12.6178 97.4474 12.5866 97.6351 12.5241C97.8227 12.4616 98.0104 12.3678 98.2293 12.3054C98.4169 12.2429 98.6046 12.1491 98.7922 12.0866C98.9799 12.0241 99.0737 11.9617 99.105 11.9304C99.4802 11.6492 99.8555 11.118 100.262 10.3369C100.387 10.1182 100.481 9.86821 100.637 9.55576C100.794 9.2433 100.888 8.96209 101.013 8.64964C101.138 8.33719 101.263 8.02473 101.357 7.71228C101.482 7.39982 101.544 7.11862 101.638 6.86865H104.578L104.64 11.7429H109.488V14.555H104.64V23.6787C104.64 24.5535 104.64 25.2409 104.672 25.7721C104.703 26.3033 104.766 26.6782 104.859 26.9282C104.953 27.1782 105.141 27.3656 105.36 27.4281C105.579 27.4906 105.891 27.5531 106.267 27.5531H106.298C106.548 27.5531 106.83 27.5219 107.142 27.4906C107.424 27.4594 107.705 27.3969 107.987 27.3344C108.268 27.2719 108.518 27.2094 108.769 27.1469C109.019 27.0844 109.206 27.0219 109.363 26.9594H109.394L110.176 28.8967C109.832 29.1466 109.457 29.3966 108.956 29.6465C108.456 29.8965 107.955 30.1152 107.361 30.3339C106.767 30.5527 106.173 30.7089 105.516 30.8339C104.859 30.9589 104.234 31.0213 103.577 31.0213H103.546C102.827 31.0213 102.201 30.9276 101.701 30.7401C101.2 30.5527 100.762 30.2715 100.45 29.8965C100.137 29.5216 99.9181 29.0841 99.7617 28.5217C99.6053 27.9593 99.5428 27.3656 99.5428 26.647Z" fill="#3D7FFC"/>
<path d="M124.473 30.9449C123.504 30.9449 122.566 30.7574 121.659 30.3824C120.752 30.0075 119.97 29.4138 119.313 28.6639C118.625 27.8828 118.094 26.9142 117.687 25.7581C117.28 24.602 117.093 23.2272 117.093 21.6337C117.093 20.1652 117.312 18.8216 117.75 17.5718C118.187 16.322 118.844 15.2284 119.657 14.2911C120.502 13.3537 121.502 12.6351 122.691 12.1039C123.879 11.5727 125.224 11.3227 126.725 11.3227C127.257 11.3227 127.757 11.354 128.289 11.4165C128.789 11.479 129.29 11.5415 129.759 11.6352V8.16873L126.506 7.85628V6.29401L132.573 5.57537H132.667L133.48 5.47754V28.6015H135.451V30.3512C134.981 30.4762 134.45 30.6012 133.824 30.7574C133.199 30.9136 132.542 30.9761 131.854 30.9761C131.573 30.9761 131.291 30.9449 131.072 30.9136C130.853 30.8824 130.666 30.7886 130.509 30.6636C130.353 30.5387 130.228 30.3512 130.165 30.1325C130.103 29.9138 130.04 29.6013 130.04 29.2264V28.5077C129.759 28.8202 129.415 29.1014 129.039 29.4138C128.664 29.7263 128.258 29.9762 127.788 30.195C127.319 30.4137 126.819 30.6012 126.256 30.7574C125.724 30.8511 125.13 30.9449 124.473 30.9449ZM126.006 28.414C126.444 28.414 126.85 28.3515 127.257 28.2578C127.632 28.1328 128.007 28.0078 128.32 27.8516C128.633 27.6953 128.914 27.5079 129.165 27.3204C129.415 27.1329 129.634 26.9454 129.79 26.758V14.1973C129.727 14.0723 129.571 13.9474 129.383 13.8224C129.165 13.6974 128.946 13.5724 128.633 13.4787C128.351 13.3849 128.007 13.2912 127.663 13.26C127.319 13.1975 126.944 13.1662 126.538 13.1662C125.787 13.1662 125.099 13.2912 124.473 13.5724C123.817 13.8536 123.254 14.2911 122.753 14.916C122.253 15.5409 121.878 16.3533 121.596 17.3531C121.315 18.353 121.158 19.5715 121.127 21.0088C121.096 22.2899 121.221 23.4147 121.471 24.3521C121.721 25.2894 122.065 26.0393 122.503 26.6642C122.941 27.2579 123.473 27.7266 124.067 28.0078C124.661 28.2578 125.318 28.414 126.006 28.414Z" fill="#C6DBFF"/>
<path d="M135.911 25.701C135.911 24.9199 136.068 24.2012 136.349 23.5763C136.63 22.9514 137.037 22.4203 137.569 21.9203C138.1 21.4516 138.695 21.0455 139.383 20.7018C140.071 20.3581 140.821 20.1081 141.634 19.8894C142.447 19.6707 143.292 19.5144 144.167 19.4207C145.043 19.327 145.919 19.2645 146.763 19.2332V18.3583C146.763 17.5772 146.701 16.9211 146.607 16.3899C146.482 15.8587 146.294 15.4213 146.044 15.0776C145.762 14.7339 145.418 14.4839 144.949 14.3589C144.511 14.2027 143.917 14.1402 143.229 14.1402C142.635 14.1402 142.041 14.2027 141.447 14.2964C140.852 14.4214 140.289 14.5464 139.727 14.7026C139.195 14.8589 138.695 15.0463 138.225 15.2026C137.756 15.39 137.381 15.5463 137.068 15.7025H137.037L136.286 14.109C136.505 13.9215 136.849 13.6715 137.381 13.3591C137.913 13.0466 138.538 12.7654 139.257 12.453C139.977 12.1718 140.759 11.9218 141.572 11.7031C142.416 11.4844 143.229 11.3906 144.042 11.3906C145.199 11.3906 146.169 11.5156 146.982 11.7343C147.764 11.9843 148.421 12.3592 148.921 12.8592C149.421 13.3903 149.765 14.0465 149.984 14.8901C150.203 15.7337 150.297 16.7336 150.297 17.9522V28.8256H152.33V30.4191C152.111 30.4816 151.861 30.5441 151.579 30.6065C151.298 30.669 150.985 30.7315 150.672 30.794C150.36 30.8565 150.016 30.919 149.703 30.9502C149.39 30.9815 149.046 31.0127 148.765 31.0127C148.452 31.0127 148.202 31.0127 147.952 30.9815C147.733 30.9502 147.545 30.8878 147.389 30.7628C147.232 30.6378 147.138 30.4816 147.076 30.2316C147.013 30.0129 146.982 29.7004 146.982 29.2942V28.6693C146.826 28.7943 146.607 28.9818 146.294 29.263C145.981 29.513 145.575 29.7942 145.106 30.0441C144.637 30.2941 144.105 30.5441 143.479 30.7315C142.885 30.919 142.228 31.0127 141.54 31.0127C140.79 31.0127 140.071 30.919 139.383 30.7003C138.695 30.4816 138.1 30.1691 137.569 29.7629C137.037 29.3255 136.63 28.7943 136.318 28.1069C136.005 27.4195 135.911 26.6384 135.911 25.701ZM143.01 28.5131C143.229 28.5131 143.511 28.4819 143.823 28.4194C144.136 28.3569 144.48 28.2631 144.824 28.1694C145.168 28.0444 145.512 27.9194 145.825 27.7632C146.169 27.607 146.45 27.4195 146.732 27.232V21.1079C145.418 21.1079 144.324 21.2329 143.417 21.4516C142.541 21.6704 141.822 21.9828 141.29 22.3578C140.759 22.7327 140.383 23.1701 140.164 23.6701C139.945 24.17 139.82 24.6699 139.82 25.2011C139.82 25.7948 139.914 26.3259 140.071 26.7321C140.227 27.1383 140.446 27.482 140.727 27.7632C141.009 28.0132 141.353 28.2319 141.728 28.3256C142.166 28.4506 142.572 28.5131 143.01 28.5131Z" fill="#C6DBFF"/>
<path d="M153.273 26.7407V13.8364H150.896V12.2741C151.24 12.1491 151.585 12.0554 151.897 11.9304C152.241 11.8054 152.491 11.7117 152.617 11.5867C152.992 11.3367 153.273 10.9306 153.555 10.3369C153.649 10.1494 153.742 9.86821 153.899 9.55576C154.024 9.2433 154.149 8.8996 154.274 8.5559C154.399 8.2122 154.524 7.89975 154.618 7.5873C154.712 7.27484 154.806 7.02488 154.837 6.86865H156.964V11.4305H162.499V13.8364H156.964V23.7412C156.964 24.7098 156.964 25.4909 156.995 26.0533C157.026 26.6157 157.089 27.0219 157.214 27.2719C157.339 27.5219 157.527 27.7093 157.777 27.7718C158.027 27.8343 158.371 27.8656 158.809 27.8656H158.84C159.153 27.8656 159.497 27.8343 159.841 27.8031C160.185 27.7718 160.529 27.7093 160.842 27.6468C161.186 27.5843 161.467 27.5219 161.749 27.4594C162.03 27.3969 162.249 27.3344 162.405 27.2406H162.437L162.999 28.8654C162.749 29.0529 162.374 29.2716 161.905 29.4903C161.436 29.709 160.935 29.8965 160.404 30.084C159.872 30.2715 159.309 30.3964 158.715 30.5214C158.121 30.6464 157.589 30.7089 157.057 30.7089H157.026C156.432 30.7089 155.932 30.6464 155.462 30.5214C154.993 30.3964 154.618 30.1777 154.274 29.8653C153.961 29.5528 153.711 29.1466 153.523 28.6467C153.367 28.0843 153.273 27.4594 153.273 26.7407Z" fill="#C6DBFF"/>
<path d="M163.094 25.3529C163.094 24.5717 163.25 23.8531 163.532 23.2282C163.813 22.6033 164.22 22.0721 164.751 21.5722C165.283 21.1035 165.877 20.6973 166.565 20.3536C167.253 20.0099 168.004 19.7599 168.817 19.5412C169.63 19.3225 170.474 19.1663 171.35 19.0725C172.226 18.9788 173.101 18.9163 173.946 18.8851V18.0102C173.946 17.2291 173.883 16.5729 173.789 16.0417C173.664 15.5106 173.477 15.0731 173.226 14.7294C172.945 14.3857 172.601 14.1358 172.132 14.0108C171.694 13.8546 171.1 13.7921 170.412 13.7921C169.818 13.7921 169.223 13.8546 168.629 13.9483C168.035 14.0733 167.472 14.1983 166.909 14.3545C166.378 14.5107 165.877 14.6982 165.408 14.8544C164.939 15.0419 164.564 15.1981 164.251 15.3543H164.22L163.469 13.7608C163.688 13.5734 164.032 13.3234 164.564 13.0109C165.095 12.6985 165.721 12.4173 166.44 12.1048C167.159 11.8236 167.941 11.5737 168.754 11.3549C169.599 11.1362 170.412 11.0425 171.225 11.0425C172.382 11.0425 173.352 11.1675 174.165 11.3862C174.947 11.6361 175.603 12.0111 176.104 12.511C176.604 13.0422 176.948 13.6983 177.167 14.542C177.386 15.3856 177.48 16.3854 177.48 17.604V28.4774H179.513V30.0709C179.294 30.1334 179.043 30.1959 178.762 30.2584C178.481 30.3209 178.168 30.3834 177.855 30.4459C177.542 30.5084 177.198 30.5709 176.886 30.6021C176.573 30.6333 176.229 30.6646 175.947 30.6646C175.635 30.6646 175.384 30.6646 175.134 30.6333C174.915 30.6021 174.728 30.5396 174.571 30.4146C174.415 30.2896 174.321 30.1334 174.259 29.8835C174.196 29.6647 174.165 29.3523 174.165 28.9461V28.3212C174.008 28.4462 173.789 28.6336 173.477 28.9148C173.164 29.1648 172.757 29.446 172.288 29.696C171.819 29.9459 171.288 30.1959 170.662 30.3834C170.068 30.5709 169.411 30.6646 168.723 30.6646C167.972 30.6646 167.253 30.5709 166.565 30.3521C165.877 30.1334 165.283 29.821 164.751 29.4148C164.22 28.9773 163.813 28.4462 163.5 27.7588C163.188 27.0714 163.094 26.2902 163.094 25.3529ZM170.224 28.165C170.443 28.165 170.725 28.1337 171.037 28.0712C171.35 28.0087 171.694 27.915 172.038 27.8213C172.382 27.6963 172.726 27.5713 173.039 27.4151C173.383 27.2588 173.664 27.0714 173.946 26.8839V20.7598C172.632 20.7598 171.538 20.8848 170.631 21.1035C169.755 21.3222 169.036 21.6347 168.504 22.0096C167.972 22.3846 167.597 22.822 167.378 23.3219C167.159 23.8218 167.034 24.3218 167.034 24.8529C167.034 25.4466 167.128 25.9778 167.284 26.384C167.441 26.7902 167.66 27.1339 167.941 27.4151C168.223 27.665 168.567 27.8838 168.942 27.9775C169.38 28.1025 169.786 28.165 170.224 28.165Z" fill="#C6DBFF"/>
</g>
</g>
<defs>
<clipPath id="clip0_23_192">
<rect width="180" height="40" fill="white" transform="translate(0 0.60791)"/>
</clipPath>
<clipPath id="clip1_23_192">
<rect width="178.776" height="40" fill="white" transform="translate(0 0.60791)"/>
</clipPath>
</defs>
</svg>
