<svg width="180" height="41" viewBox="0 0 180 41" fill="none" xmlns="http://www.w3.org/2000/svg">
<g clip-path="url(#clip0_23_78)">
<path d="M167.15 30.7343L167.546 28.2157C168.021 28.411 168.53 28.5147 169.045 28.5212C170.371 28.5212 171.313 27.6037 171.688 26.124L166.766 14.3741H170.285L173.395 22.9217L176.468 14.3741H180L174.387 27.7194C173.433 29.9692 171.971 31.2534 169.418 31.2534C168.631 31.2538 167.856 31.0762 167.15 30.7343ZM113.634 31.0032V14.3741H116.695L116.757 15.7927C117.229 15.2286 117.831 14.7835 118.512 14.4943C119.193 14.2051 119.934 14.0801 120.673 14.1296C124.044 14.1296 126.435 16.7224 126.435 20.293C126.435 23.8392 124.04 26.3587 120.673 26.3587C119.959 26.3992 119.245 26.2881 118.578 26.0329C117.911 25.7776 117.307 25.3841 116.807 24.8789V31.0057L113.634 31.0032ZM116.794 20.2792C116.782 20.7049 116.857 21.1288 117.014 21.5256C117.171 21.9224 117.406 22.2841 117.707 22.5894C118.008 22.8948 118.368 23.1374 118.766 23.3032C119.163 23.4689 119.591 23.5543 120.022 23.5543C120.454 23.5543 120.881 23.4689 121.279 23.3032C121.676 23.1374 122.036 22.8948 122.337 22.5894C122.638 22.2841 122.874 21.9224 123.031 21.5256C123.188 21.1288 123.262 20.7049 123.25 20.2792C123.271 19.848 123.203 19.4171 123.051 19.0126C122.898 18.608 122.663 18.2383 122.362 17.9259C122.06 17.6134 121.697 17.3646 121.295 17.1946C120.893 17.0247 120.46 16.937 120.022 16.937C119.585 16.937 119.152 17.0247 118.75 17.1946C118.348 17.3646 117.985 17.6134 117.683 17.9259C117.381 18.2383 117.147 18.608 116.994 19.0126C116.841 19.4171 116.773 19.848 116.794 20.2792ZM103.594 22.26V16.9791H101.587V14.3716H103.606V10.6079H106.692V14.3741H110.137V16.9815H106.766V21.8119C106.735 22.0483 106.759 22.2886 106.836 22.5146C106.913 22.7406 107.041 22.9463 107.211 23.116C107.38 23.2858 107.587 23.4151 107.815 23.4943C108.043 23.5734 108.286 23.6003 108.526 23.5727C109.208 23.5644 109.887 23.4699 110.545 23.2916L110.843 25.8991C109.917 26.2087 108.945 26.3656 107.968 26.3636C105.353 26.3587 103.594 25.0256 103.594 22.26ZM138.404 20.2425C138.404 18.5785 139.074 16.9826 140.266 15.806C141.459 14.6293 143.076 13.9683 144.762 13.9683C146.448 13.9683 148.065 14.6293 149.258 15.806C150.45 16.9826 151.12 18.5785 151.12 20.2425C151.12 21.9065 150.45 23.5024 149.258 24.6791C148.065 25.8557 146.448 26.5167 144.762 26.5167C143.076 26.5167 141.459 25.8557 140.266 24.6791C139.074 23.5024 138.404 21.9065 138.404 20.2425ZM141.564 20.2425C141.547 20.6673 141.617 21.0911 141.77 21.4884C141.923 21.8858 142.156 22.2486 142.455 22.5551C142.753 22.8615 143.111 23.1053 143.508 23.2718C143.904 23.4384 144.33 23.5242 144.761 23.5242C145.192 23.5242 145.618 23.4384 146.015 23.2718C146.411 23.1053 146.769 22.8615 147.068 22.5551C147.366 22.2486 147.599 21.8858 147.752 21.4884C147.905 21.0911 147.975 20.6673 147.958 20.2425C147.972 19.8197 147.899 19.3984 147.745 19.0037C147.59 18.6091 147.357 18.2491 147.059 17.9451C146.761 17.6412 146.404 17.3995 146.009 17.2345C145.614 17.0695 145.19 16.9844 144.761 16.9844C144.332 16.9844 143.908 17.0695 143.513 17.2345C143.119 17.3995 142.761 17.6412 142.463 17.9451C142.165 18.2491 141.932 18.6091 141.777 19.0037C141.623 19.3984 141.55 19.8197 141.564 20.2425ZM75.3067 20.223C75.3067 16.6646 77.7722 14.1329 81.0436 14.1329C81.777 14.0923 82.5099 14.2216 83.1838 14.5104C83.8576 14.7991 84.4536 15.2394 84.9243 15.796L84.9862 14.3773H88.095V26.1134H84.9846L84.9227 24.6948C84.4538 25.2535 83.8581 25.6953 83.1838 25.9842C82.5095 26.2732 81.7757 26.4012 81.0419 26.3578C77.773 26.3578 75.3067 23.7781 75.3067 20.223ZM78.4666 20.223C78.4389 20.6536 78.5011 21.0852 78.6494 21.4911C78.7977 21.8971 79.0288 22.2686 79.3286 22.5827C79.6283 22.8969 79.9902 23.1469 80.3919 23.3173C80.7936 23.4878 81.2264 23.575 81.6637 23.5736C82.1031 23.5751 82.5383 23.4883 82.9427 23.3185C83.3471 23.1488 83.7123 22.8996 84.016 22.5862C84.3197 22.2727 84.5556 21.9016 84.7093 21.4953C84.8631 21.089 84.9314 20.6561 84.9103 20.223C84.9293 19.7932 84.8589 19.3642 84.7036 18.9623C84.5483 18.5604 84.3113 18.1941 84.0072 17.8859C83.7031 17.5778 83.3383 17.3343 82.9352 17.1705C82.5322 17.0067 82.0995 16.9261 81.6637 16.9335C81.2301 16.926 80.7996 17.007 80.3992 17.1714C79.9988 17.3359 79.6372 17.5802 79.337 17.8891C79.0369 18.1979 78.8046 18.5647 78.6548 18.9663C78.505 19.3679 78.4409 19.7957 78.4666 20.223ZM40.845 25.5145L41.1794 22.9461C42.4524 23.4552 43.8083 23.7329 45.1815 23.7659C46.7305 23.7659 47.3877 23.4481 47.3877 22.7506C47.3877 22.1272 46.8799 21.8208 45.4886 21.5764L44.0635 21.3075C41.7747 20.9164 40.6592 19.7667 40.6592 17.8225C40.6592 15.6338 42.716 14.1296 45.8759 14.1296C47.2541 14.109 48.6228 14.3582 49.9028 14.863L49.6303 17.4191C48.4793 16.9989 47.264 16.7757 46.0369 16.7591C44.4755 16.7591 43.7192 17.1258 43.7192 17.8225C43.7192 18.3969 44.2394 18.6911 45.6645 18.9477L46.9286 19.18C49.2835 19.6078 50.4601 20.6597 50.4601 22.6895C50.4601 25.0525 48.4784 26.3562 45.4292 26.3562C43.858 26.3984 42.2956 26.1115 40.845 25.5145ZM161.662 26.1134L158.923 22.212L156.209 26.1134H152.641L157.017 20.1211L152.679 14.3741H156.335L158.925 17.9936L161.503 14.3741H165.146L160.833 20.1211L165.245 26.1134H161.662ZM129.1 26.1134V14.3741H132.173L132.235 15.976C132.514 15.4041 132.955 14.9248 133.505 14.5968C134.056 14.2688 134.691 14.1065 135.333 14.1296C135.861 14.135 136.384 14.2258 136.882 14.3985L136.635 17.1991C136.162 17.028 135.663 16.937 135.16 16.9302C133.756 16.9302 132.285 17.6758 132.285 20.0975V26.1142L129.1 26.1134ZM91.5216 26.1134V14.3741H94.5948L94.6592 15.976C94.9374 15.4041 95.3788 14.9248 95.9291 14.5968C96.4794 14.2688 97.1147 14.1065 97.7572 14.1296C98.2849 14.135 98.8082 14.2258 99.3061 14.3985L99.0584 17.1991C98.5858 17.028 98.0872 16.937 97.5838 16.9302C96.1801 16.9302 94.7087 17.6758 94.7087 20.0975V26.1142L91.5216 26.1134ZM69.3312 26.1134V19.5466C69.3664 19.2226 69.3303 18.8948 69.2255 18.5857C69.1207 18.2766 68.9495 17.9934 68.7237 17.7555C68.498 17.5176 68.2228 17.3306 67.9172 17.2071C67.6115 17.0837 67.2824 17.0268 66.9524 17.0402C66.6153 17.0159 66.2768 17.061 65.9583 17.1727C65.6399 17.2844 65.3484 17.4602 65.1025 17.6891C64.8566 17.9179 64.6616 18.1946 64.5299 18.5018C64.3982 18.809 64.3326 19.1398 64.3374 19.4733V26.1134H61.1528V19.5466C61.1872 19.2237 61.151 18.8971 61.0467 18.5891C60.9423 18.2811 60.7722 17.9988 60.5478 17.7612C60.3234 17.5236 60.05 17.3363 59.746 17.2119C59.4419 17.0875 59.1144 17.029 58.7855 17.0402C58.4437 17.0202 58.1015 17.0708 57.7807 17.1888C57.4598 17.3068 57.1675 17.4896 56.9225 17.7256C56.6774 17.9615 56.4849 18.2454 56.3574 18.559C56.23 18.8726 56.1702 19.209 56.1821 19.5466V26.1134H52.9983V14.3741H56.0219L56.0839 15.7316C56.5254 15.2062 57.0838 14.7883 57.7156 14.5105C58.3474 14.2327 59.0357 14.1023 59.7268 14.1296C60.5223 14.0733 61.318 14.2383 62.0233 14.6057C62.7287 14.9731 63.3156 15.5283 63.7173 16.2083C64.1785 15.5528 64.7968 15.02 65.5171 14.6573C66.2374 14.2947 67.0373 14.1134 67.8458 14.1296C68.4693 14.091 69.0941 14.1839 69.6785 14.402C70.2628 14.62 70.7935 14.9584 71.2352 15.3945C71.6768 15.8306 72.0194 16.3544 72.2401 16.9312C72.4607 17.5081 72.5545 18.1246 72.515 18.74V26.1142L69.3312 26.1134Z" fill="#385D7E"/>
<path d="M0 27.8072V12.6204C0.000598236 12.3752 0.0686036 12.1347 0.196768 11.9247C0.324932 11.7146 0.508453 11.5428 0.727768 11.4275C0.947084 11.3123 1.19398 11.2579 1.44213 11.2703C1.69028 11.2826 1.9304 11.3611 2.13688 11.4975L8.15615 15.4715C8.34336 15.595 8.49682 15.7621 8.60297 15.9581C8.70911 16.1541 8.76465 16.3729 8.76468 16.5951V23.8317C8.76465 24.0539 8.70911 24.2727 8.60297 24.4687C8.49682 24.6647 8.34336 24.8318 8.15615 24.9553L2.13688 28.9293C1.91249 29.0796 1.64764 29.1602 1.37642 29.1607C1.19596 29.1611 1.01719 29.1264 0.850319 29.0586C0.683451 28.9908 0.531763 28.8912 0.403928 28.7655C0.276094 28.6398 0.174621 28.4905 0.105312 28.3261C0.0360026 28.1616 0.000216507 27.9853 0 27.8072ZM14.76 26.3348V13.885C14.7804 13.6307 14.8734 13.3874 15.0284 13.1833C15.1833 12.9792 15.3938 12.8226 15.6353 12.7318C15.8768 12.641 16.1394 12.6197 16.3927 12.6704C16.646 12.721 16.8795 12.8416 17.0661 13.018L20.1096 15.8056C20.2323 15.9154 20.3305 16.0492 20.3982 16.1984C20.4658 16.3476 20.5014 16.5091 20.5027 16.6725V23.5465C20.5014 23.71 20.4659 23.8714 20.3982 24.0206C20.3306 24.1699 20.2323 24.3036 20.1096 24.4135L17.0661 27.201C16.8086 27.4362 16.4699 27.5656 16.1191 27.5628C15.948 27.5703 15.7772 27.5445 15.6163 27.4868C15.4554 27.4291 15.3076 27.3407 15.1813 27.2266C15.0551 27.1124 14.9529 26.9749 14.8806 26.8217C14.8083 26.6685 14.7673 26.5036 14.76 26.3348ZM26.4749 25.3864V14.7292C26.4749 13.3276 28.5292 12.8184 29.3912 14.0219L30.4679 15.302C30.6184 15.5081 30.7 15.7553 30.7016 16.0093V24.1055C30.7 24.3594 30.6184 24.6067 30.4679 24.8127L29.3945 26.0961C29.242 26.3082 29.0395 26.4806 28.8044 26.5982C28.5694 26.7159 28.3089 26.7754 28.0453 26.7716C27.8494 26.7849 27.6528 26.7594 27.467 26.6965C27.2813 26.6337 27.1102 26.5347 26.9638 26.4055C26.8174 26.2764 26.6987 26.1195 26.6148 25.9444C26.5308 25.7692 26.4832 25.5792 26.4749 25.3856V25.3864Z" fill="#F44862"/>
</g>
<defs>
<clipPath id="clip0_23_78">
<rect width="180" height="20.6422" fill="white" transform="translate(0 10.6079)"/>
</clipPath>
</defs>
</svg>
