<svg width="72" height="73" viewBox="0 0 72 73" fill="none" xmlns="http://www.w3.org/2000/svg">
<path d="M5 38.2573V47.9775C5 48.6988 5.47363 49.42 6.42305 49.9689L40.7484 69.7861C42.6451 70.8819 45.7495 70.8819 47.6462 69.7861L69.5904 57.1165C70.5399 56.5696 71.0135 55.8463 71.0135 55.1251V45.4049L5 38.2573Z" fill="#0BAA8D"/>
<path d="M6.42305 40.2492C5.47363 39.7002 5 38.979 5 38.2578C5 37.5366 5.47363 36.8132 6.42305 36.2664L28.3673 23.5968C30.2639 22.5009 33.3684 22.5009 35.2651 23.5968L69.5904 43.4139C70.5398 43.9608 71.0135 44.6841 71.0135 45.4053C71.0135 46.1266 70.5398 46.8499 69.5904 47.3968L47.6462 60.0664C45.7495 61.1622 42.6451 61.1622 40.7484 60.0664L6.42305 40.2492Z" fill="#3DFFDC"/>
<path d="M35.4199 34.3336V38.2282C35.4199 39.5328 36.2811 40.8375 38.0055 41.8321C39.73 42.8267 41.9883 43.324 44.2467 43.324C46.5051 43.324 48.7656 42.8267 50.4879 41.8321C52.2123 40.8375 53.0735 39.5328 53.0735 38.2282V34.3336C53.0735 33.029 52.2123 31.7244 50.4879 30.7297C48.7634 29.7351 46.5051 29.2378 44.2467 29.2378C41.9883 29.2378 39.7278 29.7351 38.0055 30.7297C36.2811 31.7244 35.4199 33.029 35.4199 34.3336Z" fill="#0BAA8D"/>
<path d="M38.0055 30.7297C39.73 29.7351 41.9883 29.2378 44.2467 29.2378C46.5051 29.2378 48.7656 29.7351 50.4879 30.7297C52.2123 31.7244 53.0735 33.029 53.0735 34.3336C53.0735 35.6383 52.2123 36.9429 50.4879 37.9375C48.7634 38.9322 46.5051 39.4295 44.2467 39.4295C41.9883 39.4295 39.7278 38.9322 38.0055 37.9375C36.2811 36.9429 35.4199 35.6383 35.4199 34.3336C35.4199 33.029 36.2811 31.7244 38.0055 30.7297Z" fill="#3DFFDC"/>
<path d="M41.4643 55.4006C42.1015 55.0325 43.1349 55.0325 43.7721 55.4006C44.4094 55.7688 44.4094 56.3651 43.7721 56.7332C43.1349 57.1014 42.1015 57.1014 41.4643 56.7332C40.827 56.3651 40.827 55.7688 41.4643 55.4006Z" fill="#313965"/>
<path d="M35.8979 52.1868C36.5351 51.8186 37.5685 51.8186 38.2057 52.1868C38.843 52.5549 38.843 53.1512 38.2057 53.5194C37.5685 53.8875 36.5351 53.8875 35.8979 53.5194C35.2606 53.1512 35.2606 52.5549 35.8979 52.1868Z" fill="#313965"/>
<path d="M42.9512 9.46436V34.3515C42.9512 34.3925 42.977 34.4312 43.0308 34.4613L44.2494 35.1653C44.3548 35.2256 44.5271 35.2256 44.6326 35.1653L45.8511 34.4613C45.9028 34.4312 45.9307 34.3903 45.9307 34.3515V10.3255L42.9512 9.46651V9.46436Z" fill="#0BAA8D"/>
<path d="M42.9512 9.46436V13.1522C42.9512 13.1931 42.977 13.2319 43.0308 13.262L44.2494 13.966C44.3548 14.0263 44.5271 14.0263 44.6326 13.966L45.8511 13.262C45.9028 13.2319 45.9307 13.191 45.9307 13.1522V9.46436H42.9512Z" fill="#3DFFDC"/>
<path d="M43.0289 9.5767C42.9772 9.54656 42.9492 9.50566 42.9492 9.46691C42.9492 9.426 42.9751 9.38725 43.0289 9.35711L44.2474 8.65312C44.3529 8.59284 44.5251 8.59284 44.6306 8.65312L45.8491 9.35711C45.9008 9.38725 45.9288 9.42815 45.9288 9.46691C45.9288 9.50566 45.903 9.54656 45.8491 9.5767L44.6306 10.2807C44.5251 10.341 44.3529 10.341 44.2474 10.2807L43.0289 9.5767Z" fill="#41413F"/>
<path d="M7.46645 55.2821C7.46645 54.6659 7.57048 54.1417 7.75855 53.7136C6.28603 53.5535 5.24568 54.6139 5.24568 56.5626C5.24568 59.1235 7.0423 62.2366 9.26308 63.517C10.9477 64.4894 12.3882 64.1212 12.9844 62.7648C12.5202 62.7127 12.0121 62.5407 11.4799 62.2366C9.26309 60.9561 7.46645 57.843 7.46645 55.2821Z" fill="#E17900"/>
<path d="M17.4981 54.1254C14.173 48.3714 8.78706 45.2543 5.4619 47.175L3.24513 48.4554C6.57029 46.5348 11.9602 49.6479 15.2853 55.4059C18.6065 61.1599 18.6065 67.3781 15.2933 69.2987L17.5061 68.0223C20.8313 66.1016 20.8313 59.8794 17.5061 54.1214L17.4981 54.1254Z" fill="#E17900"/>
<path d="M15.282 69.306L9.26384 72.7792L3.24575 62.3555C-0.0794182 56.5975 -0.0794182 50.3753 3.24575 48.4547C6.57091 46.534 11.9608 49.6471 15.2859 55.4051C18.6071 61.1631 18.6111 67.3853 15.2859 69.306H15.282ZM13.2773 61.1991C13.2773 58.6382 11.4806 55.5212 9.26384 54.2407C7.04707 52.9603 5.24645 53.9966 5.24645 56.5615C5.24645 59.1264 7.04307 62.2355 9.26384 63.5159C11.4806 64.7964 13.2773 63.756 13.2773 61.1991Z" fill="#FF9C28"/>
</svg>
