<svg width="95" height="29" viewBox="0 0 95 29" fill="none" xmlns="http://www.w3.org/2000/svg">
<path d="M27.8382 7.0042V5.84382H29.9358C30.3003 5.84382 30.5923 5.78617 30.8117 5.67087C31.0348 5.55558 31.1985 5.39565 31.3026 5.1911C31.4068 4.98654 31.4588 4.75224 31.4588 4.48817C31.4588 4.23527 31.4068 3.9991 31.3026 3.77967C31.1985 3.56024 31.0348 3.38172 30.8117 3.24411C30.5923 3.1065 30.3003 3.03769 29.9358 3.03769H28.2734V10H26.834V1.87731H29.9358C30.5681 1.87731 31.1055 1.98889 31.5481 2.21204C31.9907 2.43519 32.3273 2.74202 32.5579 3.13253C32.7922 3.52305 32.9093 3.97121 32.9093 4.47702C32.9093 5.00142 32.7922 5.4533 32.5579 5.83266C32.3273 6.2083 31.9907 6.49839 31.5481 6.70295C31.1055 6.90378 30.5681 7.0042 29.9358 7.0042H27.8382ZM35.626 10H34.2424V3.96377H35.559L35.626 5.14647V10ZM37.4446 5.23573C37.3591 5.22085 37.268 5.2097 37.1713 5.20226C37.0783 5.19482 36.9853 5.1911 36.8923 5.1911C36.5874 5.1911 36.3326 5.24689 36.128 5.35846C35.9272 5.46632 35.7747 5.62252 35.6706 5.82708C35.5664 6.02792 35.5051 6.26594 35.4865 6.54116L35.1685 6.54674C35.1685 6.03721 35.2354 5.57975 35.3693 5.17436C35.5032 4.76897 35.7041 4.44726 35.9718 4.20924C36.2396 3.97121 36.5743 3.85219 36.976 3.85219C37.0541 3.85219 37.1415 3.85963 37.2382 3.87451C37.3349 3.88939 37.4074 3.90612 37.4558 3.92472L37.4446 5.23573ZM38.1418 6.9261C38.1418 6.33847 38.2533 5.81406 38.4765 5.35288C38.6996 4.89171 39.0195 4.52723 39.436 4.25944C39.8563 3.98794 40.3602 3.85219 40.9479 3.85219C41.5429 3.85219 42.0506 3.98794 42.4709 4.25944C42.8911 4.52723 43.211 4.89171 43.4304 5.35288C43.6536 5.81406 43.7652 6.33847 43.7652 6.9261V7.04325C43.7652 7.62716 43.6536 8.15157 43.4304 8.61646C43.211 9.07764 42.8911 9.44212 42.4709 9.7099C42.0543 9.97768 41.5504 10.1116 40.959 10.1116C40.3677 10.1116 39.8619 9.97768 39.4416 9.7099C39.0213 9.44212 38.6996 9.07764 38.4765 8.61646C38.2533 8.15157 38.1418 7.62716 38.1418 7.04325V6.9261ZM39.5253 7.04325C39.5253 7.40029 39.5755 7.72758 39.6759 8.02512C39.7763 8.31893 39.9307 8.5551 40.139 8.73362C40.3509 8.91214 40.6243 9.0014 40.959 9.0014C41.29 9.0014 41.5597 8.91214 41.768 8.73362C41.9799 8.5551 42.1343 8.31893 42.231 8.02512C42.3314 7.72758 42.3816 7.40029 42.3816 7.04325V6.9261C42.3816 6.57278 42.3314 6.24735 42.231 5.94981C42.1343 5.65228 41.9799 5.41425 41.768 5.23573C41.556 5.05349 41.2826 4.96237 40.9479 4.96237C40.6169 4.96237 40.3454 5.05349 40.1334 5.23573C39.9251 5.41425 39.7708 5.65228 39.6703 5.94981C39.5736 6.24735 39.5253 6.57278 39.5253 6.9261V7.04325ZM47.1568 5.92192L48.2949 3.96377H49.8123L47.9936 6.9261L49.8793 10H48.3674L47.1624 7.95259L45.9685 10H44.44L46.3312 6.9261L44.5125 3.96377H46.0355L47.1568 5.92192ZM54.3197 3.96377H55.7981L53.3825 10.9149C53.3267 11.0674 53.2542 11.231 53.1649 11.4059C53.0757 11.5807 52.9585 11.7462 52.8135 11.9024C52.6721 12.0586 52.4936 12.1869 52.2779 12.2873C52.0659 12.3877 51.8093 12.4379 51.508 12.4379C51.4262 12.4379 51.3463 12.4323 51.2682 12.4212C51.1938 12.4137 51.1212 12.4026 51.0506 12.3877C50.9799 12.3728 50.9111 12.3561 50.8442 12.3375V11.272C50.8814 11.2757 50.926 11.2794 50.9781 11.2831C51.0301 11.2868 51.0729 11.2887 51.1064 11.2887C51.4374 11.2887 51.6884 11.2292 51.8595 11.1102C52.0306 10.9912 52.1626 10.7885 52.2556 10.5021L52.6963 9.33613L54.3197 3.96377ZM53.2207 8.43237L53.4662 9.92748L52.5066 10.145L50.3253 3.96377H51.8205L53.2207 8.43237ZM64.2384 7.90238C64.2384 7.68295 64.1919 7.49699 64.0989 7.34451C64.0096 7.1883 63.8404 7.04511 63.5912 6.91494C63.342 6.78105 62.9831 6.64158 62.5145 6.49653C62.1314 6.38124 61.7763 6.24921 61.449 6.10044C61.1254 5.95167 60.8427 5.78059 60.601 5.58719C60.3592 5.39008 60.1696 5.16321 60.032 4.90658C59.8981 4.64624 59.8311 4.34685 59.8311 4.0084C59.8311 3.56582 59.9539 3.17716 60.1993 2.84244C60.4448 2.50399 60.7851 2.23993 61.2202 2.05025C61.6554 1.86057 62.1593 1.76573 62.7321 1.76573C63.342 1.76573 63.8664 1.87731 64.3053 2.10046C64.7442 2.31989 65.0807 2.61743 65.3151 2.99306C65.5531 3.3687 65.6721 3.78711 65.6721 4.24829H64.2328C64.2328 3.99166 64.177 3.76293 64.0654 3.5621C63.9576 3.35754 63.792 3.19948 63.5689 3.0879C63.3457 2.97261 63.0612 2.91496 62.7153 2.91496C62.3918 2.91496 62.1221 2.96331 61.9064 3.06001C61.6907 3.15671 61.5308 3.28688 61.4266 3.45052C61.3225 3.61417 61.2704 3.80013 61.2704 4.0084C61.2704 4.20552 61.3337 4.38032 61.4601 4.5328C61.5866 4.68529 61.7781 4.82476 62.0347 4.95121C62.2914 5.07395 62.6112 5.19296 62.9943 5.30825C63.5968 5.48306 64.097 5.68761 64.495 5.92192C64.8929 6.15623 65.1886 6.43331 65.382 6.75316C65.5791 7.073 65.6777 7.45236 65.6777 7.89122C65.6777 8.34868 65.5587 8.74478 65.3206 9.0795C65.0826 9.41051 64.746 9.66527 64.3109 9.84379C63.8757 10.0223 63.3643 10.1116 62.7767 10.1116C62.3862 10.1116 62.0013 10.0595 61.6219 9.95537C61.2426 9.84751 60.8985 9.68759 60.5898 9.4756C60.2849 9.25988 60.0394 8.99024 59.8534 8.66667C59.6712 8.34311 59.5801 7.96189 59.5801 7.52303H61.0194C61.0194 7.78337 61.064 8.00466 61.1533 8.1869C61.2426 8.36914 61.3671 8.51977 61.5271 8.63878C61.687 8.75407 61.873 8.83776 62.0849 8.88982C62.3007 8.94189 62.5312 8.96793 62.7767 8.96793C63.1003 8.96793 63.3699 8.9233 63.5856 8.83404C63.8013 8.74106 63.9631 8.61461 64.071 8.45468C64.1826 8.29476 64.2384 8.11066 64.2384 7.90238ZM69.683 10.1116C69.0842 10.1116 68.5673 9.98326 68.1321 9.72664C67.697 9.4663 67.3622 9.11669 67.1279 8.67783C66.8936 8.23525 66.7765 7.7406 66.7765 7.19388V6.96515C66.7765 6.33661 66.8955 5.78989 67.1335 5.32499C67.3715 4.85637 67.697 4.49375 68.1098 4.23713C68.5263 3.98051 68.9968 3.85219 69.5212 3.85219C70.1014 3.85219 70.5831 3.97865 70.9661 4.23155C71.3492 4.48074 71.6356 4.82848 71.8253 5.27478C72.0149 5.71736 72.1098 6.23061 72.1098 6.81452V7.41145H67.4403V6.41285H70.743V6.30685C70.7355 6.07255 70.6909 5.85311 70.6091 5.64856C70.5273 5.444 70.3971 5.2785 70.2186 5.15205C70.0438 5.0256 69.8095 4.96237 69.5156 4.96237C69.2218 4.96237 68.9745 5.04605 68.7737 5.21341C68.5728 5.37706 68.4203 5.60951 68.3162 5.91076C68.2121 6.2083 68.16 6.55976 68.16 6.96515V7.19388C68.16 7.53604 68.2232 7.84288 68.3497 8.11438C68.4761 8.38588 68.6602 8.60159 68.902 8.76151C69.1437 8.91772 69.432 8.99582 69.7667 8.99582C70.0903 8.99582 70.3766 8.9326 70.6258 8.80614C70.8787 8.67969 71.0963 8.49745 71.2785 8.25942L72.0038 8.98466C71.8141 9.27104 71.5277 9.53138 71.1446 9.76569C70.7653 9.99628 70.2781 10.1116 69.683 10.1116ZM74.7595 10H73.3759V3.96377H74.6925L74.7595 5.14647V10ZM76.5781 5.23573C76.4926 5.22085 76.4015 5.2097 76.3048 5.20226C76.2118 5.19482 76.1188 5.1911 76.0258 5.1911C75.7209 5.1911 75.4661 5.24689 75.2616 5.35846C75.0607 5.46632 74.9082 5.62252 74.8041 5.82708C74.7 6.02792 74.6386 6.26594 74.62 6.54116L74.302 6.54674C74.302 6.03721 74.369 5.57975 74.5028 5.17436C74.6367 4.76897 74.8376 4.44726 75.1054 4.20924C75.3731 3.97121 75.7079 3.85219 76.1095 3.85219C76.1876 3.85219 76.275 3.85963 76.3717 3.87451C76.4684 3.88939 76.541 3.90612 76.5893 3.92472L76.5781 5.23573ZM81.2083 3.96377H82.642L80.5556 10H79.663L79.7522 8.90656L81.2083 3.96377ZM80.1428 8.9233L80.2097 10H79.3227L77.2195 3.96377H78.6588L80.1428 8.9233ZM86.3684 10.1116C85.7697 10.1116 85.2527 9.98326 84.8175 9.72664C84.3824 9.4663 84.0477 9.11669 83.8134 8.67783C83.5791 8.23525 83.4619 7.7406 83.4619 7.19388V6.96515C83.4619 6.33661 83.5809 5.78989 83.8189 5.32499C84.057 4.85637 84.3824 4.49375 84.7952 4.23713C85.2118 3.98051 85.6823 3.85219 86.2067 3.85219C86.7868 3.85219 87.2685 3.97865 87.6516 4.23155C88.0346 4.48074 88.321 4.82848 88.5107 5.27478C88.7004 5.71736 88.7952 6.23061 88.7952 6.81452V7.41145H84.1258V6.41285H87.4284V6.30685C87.421 6.07255 87.3763 5.85311 87.2945 5.64856C87.2127 5.444 87.0825 5.2785 86.904 5.15205C86.7292 5.0256 86.4949 4.96237 86.2011 4.96237C85.9073 4.96237 85.6599 5.04605 85.4591 5.21341C85.2583 5.37706 85.1058 5.60951 85.0016 5.91076C84.8975 6.2083 84.8454 6.55976 84.8454 6.96515V7.19388C84.8454 7.53604 84.9087 7.84288 85.0351 8.11438C85.1616 8.38588 85.3457 8.60159 85.5874 8.76151C85.8292 8.91772 86.1174 8.99582 86.4521 8.99582C86.7757 8.99582 87.0621 8.9326 87.3113 8.80614C87.5642 8.67969 87.7817 8.49745 87.964 8.25942L88.6892 8.98466C88.4995 9.27104 88.2132 9.53138 87.8301 9.76569C87.4507 9.99628 86.9635 10.1116 86.3684 10.1116ZM91.4449 10H90.0614V3.96377H91.378L91.4449 5.14647V10ZM93.2636 5.23573C93.178 5.22085 93.0869 5.2097 92.9902 5.20226C92.8972 5.19482 92.8043 5.1911 92.7113 5.1911C92.4063 5.1911 92.1515 5.24689 91.947 5.35846C91.7462 5.46632 91.5937 5.62252 91.4895 5.82708C91.3854 6.02792 91.324 6.26594 91.3054 6.54116L90.9874 6.54674C90.9874 6.03721 91.0544 5.57975 91.1883 5.17436C91.3222 4.76897 91.523 4.44726 91.7908 4.20924C92.0586 3.97121 92.3933 3.85219 92.795 3.85219C92.8731 3.85219 92.9605 3.85963 93.0572 3.87451C93.1539 3.88939 93.2264 3.90612 93.2747 3.92472L93.2636 5.23573Z" fill="#363F48"/>
<path d="M31.3353 13.1247C32.2239 13.1247 32.9863 13.2587 33.6225 13.5269C34.2639 13.7898 34.7555 14.1789 35.0973 14.6941C35.4391 15.2042 35.6099 15.8377 35.6099 16.5949C35.6099 17.2258 35.5048 17.7621 35.2945 18.2038C35.0894 18.6454 34.8002 19.0109 34.4269 19.3001C34.0536 19.5892 33.6146 19.8232 33.1098 20.002L32.3211 20.4515H28.638L28.6222 18.4483H31.3274C31.727 18.4483 32.0609 18.3826 32.329 18.2511C32.5972 18.1144 32.797 17.9225 32.9284 17.6754C33.0599 17.4282 33.1256 17.1364 33.1256 16.7999C33.1256 16.2847 32.9784 15.8772 32.6839 15.5775C32.3947 15.2778 31.9452 15.1279 31.3353 15.1279H29.4897V24.6079H27.0133V13.1247H31.3353ZM30.7832 19.5051L33.4016 19.4893L36.0279 24.4896V24.6079H33.3701L30.7832 19.5051ZM41.5248 24.7656C40.6257 24.7656 39.8554 24.579 39.2139 24.2057C38.5777 23.8324 38.0887 23.3329 37.747 22.7072C37.4105 22.0815 37.2422 21.3901 37.2422 20.6329V20.3253C37.2422 19.4736 37.4026 18.7164 37.7233 18.0539C38.0493 17.3862 38.512 16.863 39.1114 16.4845C39.7108 16.1059 40.4259 15.9166 41.2566 15.9166C42.0821 15.9166 42.7762 16.0901 43.3387 16.4371C43.9013 16.7842 44.3272 17.2731 44.6164 17.9041C44.9056 18.5298 45.0502 19.2659 45.0502 20.1124V21.1219H38.2438V19.5209H42.7078V19.3316C42.7078 19.0372 42.6552 18.7769 42.5501 18.5508C42.4449 18.3247 42.2845 18.1486 42.069 18.0224C41.8586 17.8962 41.5826 17.8331 41.2408 17.8331C40.8518 17.8331 40.5389 17.9435 40.3023 18.1644C40.0657 18.3852 39.8922 18.6823 39.7818 19.0556C39.6766 19.4289 39.624 19.8521 39.624 20.3253V20.6329C39.624 21.0693 39.7055 21.4532 39.8685 21.7844C40.0315 22.1157 40.2655 22.3759 40.5705 22.5652C40.8754 22.7492 41.2435 22.8413 41.6746 22.8413C42.0795 22.8413 42.458 22.7676 42.8103 22.6204C43.1626 22.4679 43.4623 22.2313 43.7094 21.9106L44.8609 23.2277C44.5928 23.6115 44.1774 23.9638 43.6148 24.2845C43.0574 24.6053 42.3608 24.7656 41.5248 24.7656ZM51.2489 16.0743H53.7412L50.8862 24.6079H49.3798L49.4271 22.8491L51.2489 16.0743ZM50.0501 22.857L50.0896 24.6079H48.5832L45.7203 16.0743H48.2283L50.0501 22.857ZM57.5423 24.6079H55.1526V16.0743H57.5423V24.6079ZM55.0107 13.8739C55.0107 13.5164 55.1316 13.2246 55.3735 12.9985C55.6153 12.7671 55.9387 12.6514 56.3435 12.6514C56.7484 12.6514 57.0691 12.7671 57.3057 12.9985C57.5476 13.2246 57.6685 13.5164 57.6685 13.8739C57.6685 14.2262 57.5476 14.518 57.3057 14.7493C57.0691 14.9807 56.7484 15.0964 56.3435 15.0964C55.9387 15.0964 55.6153 14.9807 55.3735 14.7493C55.1316 14.518 55.0107 14.2262 55.0107 13.8739ZM63.678 24.7656C62.7789 24.7656 62.0086 24.579 61.3672 24.2057C60.7309 23.8324 60.242 23.3329 59.9002 22.7072C59.5637 22.0815 59.3954 21.3901 59.3954 20.6329V20.3253C59.3954 19.4736 59.5558 18.7164 59.8765 18.0539C60.2025 17.3862 60.6652 16.863 61.2646 16.4845C61.864 16.1059 62.5791 15.9166 63.4098 15.9166C64.2353 15.9166 64.9294 16.0901 65.492 16.4371C66.0546 16.7842 66.4805 17.2731 66.7696 17.9041C67.0588 18.5298 67.2034 19.2659 67.2034 20.1124V21.1219H60.3971V19.5209H64.861V19.3316C64.861 19.0372 64.8084 18.7769 64.7033 18.5508C64.5981 18.3247 64.4378 18.1486 64.2222 18.0224C64.0119 17.8962 63.7358 17.8331 63.3941 17.8331C63.005 17.8331 62.6921 17.9435 62.4555 18.1644C62.2189 18.3852 62.0454 18.6823 61.935 19.0556C61.8298 19.4289 61.7773 19.8521 61.7773 20.3253V20.6329C61.7773 21.0693 61.8588 21.4532 62.0218 21.7844C62.1848 22.1157 62.4187 22.3759 62.7237 22.5652C63.0286 22.7492 63.3967 22.8413 63.8278 22.8413C64.2327 22.8413 64.6113 22.7676 64.9636 22.6204C65.3158 22.4679 65.6155 22.2313 65.8627 21.9106L67.0141 23.2277C66.746 23.6115 66.3306 23.9638 65.768 24.2845C65.2107 24.6053 64.514 24.7656 63.678 24.7656ZM72.9684 16.0743H74.4669L74.0095 18.748L72.2586 24.6079H71.0046L71.2096 22.2892L72.9684 16.0743ZM71.6513 22.2734L71.738 24.6079H70.2711L68.1259 16.0743H70.4209L71.6513 22.2734ZM77.2273 16.0743H79.5224L77.385 24.6079H75.9181L76.0206 22.163L77.2273 16.0743ZM76.4386 22.2576L76.6516 24.6079H75.3897L73.6388 18.7638L73.1971 16.0743H74.6798L76.4386 22.2576ZM85.5161 22.2261C85.5161 22.0683 85.4687 21.9316 85.3741 21.816C85.2847 21.7003 85.1165 21.5925 84.8693 21.4926C84.6222 21.3927 84.2647 21.2928 83.7967 21.1929C83.2236 21.0667 82.7057 20.8958 82.243 20.6803C81.7856 20.4647 81.4254 20.186 81.1625 19.8443C80.8996 19.4972 80.7682 19.0792 80.7682 18.5902C80.7682 18.1118 80.9049 17.6701 81.1783 17.2652C81.4517 16.8604 81.8434 16.5344 82.3534 16.2873C82.8687 16.0402 83.4839 15.9166 84.199 15.9166C84.9456 15.9166 85.5897 16.0349 86.1312 16.2715C86.6728 16.5081 87.0882 16.8341 87.3774 17.2495C87.6665 17.6648 87.8111 18.1407 87.8111 18.677H85.4293C85.4293 18.3563 85.3294 18.096 85.1296 17.8962C84.9351 17.6911 84.6222 17.5886 84.1911 17.5886C83.9597 17.5886 83.7573 17.628 83.5838 17.7069C83.4103 17.7858 83.2762 17.8909 83.1816 18.0224C83.0922 18.1486 83.0475 18.2984 83.0475 18.4719C83.0475 18.6297 83.0974 18.769 83.1973 18.8899C83.2972 19.0109 83.4602 19.116 83.6863 19.2054C83.9124 19.2948 84.2147 19.3737 84.5933 19.442C85.198 19.5577 85.7448 19.7181 86.2338 19.9231C86.7228 20.1229 87.1118 20.399 87.401 20.7512C87.6902 21.0983 87.8348 21.561 87.8348 22.1393C87.8348 22.6441 87.6849 23.0963 87.3852 23.4959C87.0908 23.8902 86.6702 24.2004 86.1234 24.4265C85.5818 24.6526 84.943 24.7656 84.2068 24.7656C83.4024 24.7656 82.7241 24.6211 82.172 24.3319C81.62 24.0427 81.202 23.6773 80.918 23.2356C80.6341 22.7887 80.4921 22.3339 80.4921 21.8712H82.7478C82.7636 22.1551 82.8398 22.3864 82.9765 22.5652C83.1185 22.744 83.2999 22.8754 83.5207 22.9596C83.7468 23.0437 83.9939 23.0857 84.2621 23.0857C84.5355 23.0857 84.7642 23.0516 84.9482 22.9832C85.1375 22.9096 85.2795 22.8097 85.3741 22.6835C85.4687 22.5521 85.5161 22.3996 85.5161 22.2261Z" fill="#FF9C28"/>
<path fill-rule="evenodd" clip-rule="evenodd" d="M21.448 12.4425C21.4451 15.6798 20.0054 18.5791 17.7357 20.5434L15.9411 22.3347L15.9439 22.3376L13.4419 24.8396L13.4369 24.8346L10.7042 27.5623L3.60378 20.4492C3.28273 20.164 2.97968 19.86 2.69506 19.5388L2.64281 19.4865L2.64658 19.4823C0.997802 17.5949 -0.00240393 15.126 4.3391e-06 12.4229C0.00444561 6.50054 4.81032 1.70322 10.7331 1.7085C16.656 1.71378 21.4533 6.51966 21.448 12.4425ZM13.4369 24.8346L5.81247 17.1766C3.07772 14.4419 3.08466 9.99285 5.81887 7.25864C8.55308 4.52443 13.0021 4.51749 15.7368 7.25224C18.4716 9.98699 18.4646 14.436 15.7304 17.1702L13.2703 19.6304L15.9411 22.3347L13.4369 24.8346ZM8.31451 14.6746L10.7683 17.1283L13.2284 14.6682C14.5848 13.3117 14.5836 11.1031 13.2348 9.75428C11.886 8.40543 9.67735 8.40423 8.32091 9.76068C6.96446 11.1171 6.96566 13.3257 8.31451 14.6746Z" fill="#FF9C28"/>
</svg>
