<svg width="71" height="73" viewBox="0 0 71 73" fill="none" xmlns="http://www.w3.org/2000/svg">
<g clip-path="url(#clip0_23_722)">
<path d="M25.6777 6.97971C25.6827 6.97718 25.6878 6.9738 25.6929 6.97127C25.6979 6.96874 25.703 6.96537 25.708 6.96284C25.7131 6.96031 25.7182 6.95694 25.7232 6.95441C25.7283 6.95188 25.7333 6.94851 25.7384 6.94598C25.7435 6.94345 25.7485 6.94007 25.7536 6.93754C25.7586 6.93501 25.7637 6.93164 25.7688 6.92911C25.7738 6.92658 25.7789 6.92321 25.7839 6.92068C25.789 6.91815 25.7941 6.91478 25.7991 6.91225C25.8042 6.90972 25.8092 6.90634 25.8143 6.90382C25.8193 6.90129 25.8244 6.89791 25.8295 6.89538C25.8345 6.89285 25.8396 6.88948 25.8446 6.88695C25.8497 6.88442 25.8548 6.88105 25.8598 6.87852C25.8649 6.87599 25.8699 6.87262 25.875 6.87009C25.8801 6.86756 25.8851 6.86418 25.8902 6.86165C25.8952 6.85912 25.9003 6.85575 25.9054 6.85322C25.9104 6.85069 25.9155 6.84732 25.9205 6.84479C25.9256 6.84226 25.9307 6.83889 25.9357 6.83636C25.9408 6.83383 25.9458 6.83045 25.9509 6.82792C25.9559 6.82539 25.961 6.82202 25.9661 6.81949C25.9711 6.81696 25.9762 6.81359 25.9812 6.81106C25.9863 6.80853 25.9914 6.80516 25.9964 6.80263C26.0015 6.8001 26.0065 6.79673 26.0116 6.7942C26.0167 6.79167 26.0217 6.78829 26.0268 6.78576C26.0318 6.78323 26.0369 6.77986 26.042 6.77733C26.047 6.7748 26.0521 6.77143 26.0571 6.7689C26.0622 6.76637 26.0673 6.763 26.0723 6.76047C26.0774 6.75794 26.0824 6.75456 26.0875 6.75203C26.0926 6.7495 26.0976 6.74613 26.1027 6.7436C26.1077 6.74107 26.1128 6.7377 26.1178 6.73517C26.1229 6.73264 26.128 6.72927 26.133 6.72674C26.1381 6.72421 26.1431 6.72084 26.1482 6.71831C26.1533 6.71578 26.1583 6.7124 26.1634 6.70987C26.1684 6.70734 26.1735 6.70397 26.1786 6.70144C26.1836 6.69891 26.1887 6.69554 26.1937 6.69301C26.1988 6.69048 26.2039 6.68711 26.2089 6.68458C26.214 6.68205 26.219 6.67867 26.2241 6.67614C26.2292 6.67361 26.2342 6.67024 26.2393 6.66771C26.2443 6.66518 26.2494 6.66181 26.2545 6.65928C26.2595 6.65675 26.2646 6.65338 26.2696 6.65085C26.2747 6.64832 26.2797 6.64494 26.2848 6.64242C26.2899 6.63989 26.2949 6.63651 26.3 6.63398C26.305 6.63145 26.3101 6.62808 26.3152 6.62555C26.3202 6.62302 26.3253 6.61965 26.3303 6.61712C26.3354 6.61459 26.3405 6.61122 26.3455 6.60869C26.3506 6.60616 26.3556 6.60278 26.3607 6.60025C26.3658 6.59772 26.3708 6.59435 26.3759 6.59182C26.3809 6.58929 26.386 6.58592 26.3911 6.58339C26.3961 6.58086 26.4012 6.57749 26.4062 6.57496C26.4113 6.57243 26.4164 6.56905 26.4214 6.56652C26.4265 6.564 26.4315 6.56062 26.4366 6.55809C26.4416 6.55556 26.4467 6.55219 26.4518 6.54966C26.4568 6.54713 26.4619 6.54376 26.4669 6.54123C26.472 6.5387 26.4771 6.53533 26.4821 6.5328C26.4872 6.53027 26.4922 6.52689 26.4973 6.52436C26.5024 6.52183 26.5074 6.51846 26.5125 6.51593C26.5175 6.5134 26.5226 6.51003 26.5277 6.5075C26.5327 6.50497 26.5378 6.5016 26.5428 6.49907C26.5479 6.49654 26.553 6.49316 26.558 6.49063C26.5631 6.4881 26.5681 6.48473 26.5732 6.4822C26.5782 6.47967 26.5833 6.4763 26.5884 6.47377C26.5934 6.47124 26.5985 6.46787 26.6035 6.46534C26.6086 6.46281 26.6137 6.45944 26.6187 6.45691C26.6238 6.45438 26.6288 6.451 26.6339 6.44847C26.639 6.44594 26.644 6.44257 26.6491 6.44004C26.6541 6.43751 26.6592 6.43414 26.6643 6.43161C26.6693 6.42908 26.6744 6.42571 26.6794 6.42318C26.6845 6.42065 26.6896 6.41727 26.6946 6.41474C26.6997 6.41221 26.7047 6.40884 26.7098 6.40631C26.7149 6.40378 26.7199 6.40041 26.725 6.39788C26.73 6.39535 26.7351 6.39198 26.7401 6.38945C26.7452 6.38692 26.7503 6.38355 26.7553 6.38102C26.7604 6.37849 26.7654 6.37511 26.7705 6.37258C26.7756 6.37005 26.7806 6.36668 26.7857 6.36415C26.7907 6.36162 26.7958 6.35825 26.8009 6.35572C26.8059 6.35319 26.811 6.34982 26.816 6.34729C26.8211 6.34476 26.8262 6.34138 26.8312 6.33885C26.8363 6.33632 26.8413 6.33295 26.8464 6.33042C26.8515 6.32789 26.8565 6.32452 26.8616 6.32199C26.8666 6.31946 26.8717 6.31609 26.8768 6.31356C26.8818 6.31103 26.8869 6.30765 26.8919 6.30513C26.897 6.3026 26.902 6.29922 26.9071 6.29669C26.9122 6.29416 26.9172 6.29079 26.9223 6.28826C26.9273 6.28573 26.9324 6.28236 26.9375 6.27983C26.9425 6.2773 26.9476 6.27393 26.9526 6.2714C26.9577 6.26887 26.9628 6.26549 26.9678 6.26296C26.9729 6.26043 26.9779 6.25706 26.983 6.25453C26.9881 6.252 26.9931 6.24863 26.9982 6.2461C27.0032 6.24357 27.0083 6.2402 27.0134 6.23767C27.0184 6.23514 27.0235 6.23176 27.0285 6.22923C27.0336 6.22671 27.0387 6.22333 27.0437 6.2208C27.0488 6.21827 27.0538 6.2149 27.0589 6.21237C27.0639 6.20984 27.069 6.20647 27.0741 6.20394C27.0791 6.20141 27.0842 6.19804 27.0892 6.19551C27.0943 6.19298 27.0994 6.1896 27.1044 6.18707C27.1095 6.18454 27.1145 6.18117 27.1196 6.17864C27.1247 6.17611 27.1297 6.17274 27.1348 6.17021C27.1398 6.16768 27.1449 6.16431 27.15 6.16178C27.155 6.15925 27.1601 6.15587 27.1651 6.15334C27.1702 6.15082 27.1753 6.14744 27.1803 6.14491C27.1854 6.14238 27.1904 6.13901 27.1955 6.13648C27.2006 6.13395 27.2056 6.13058 27.2107 6.12805C27.2157 6.12552 27.2208 6.12215 27.2258 6.11962C27.2309 6.11709 27.236 6.11371 27.241 6.11118C27.2461 6.10865 27.2511 6.10528 27.2562 6.10275C27.2613 6.10022 27.2663 6.09685 27.2714 6.09432C27.2764 6.09179 27.2815 6.08842 27.2866 6.08589C27.2916 6.08336 27.2967 6.07998 27.3017 6.07745C27.3068 6.07492 27.3119 6.07155 27.3169 6.06902C27.322 6.06649 27.327 6.06312 27.3321 6.06059C27.3372 6.05806 27.3422 6.05469 27.3473 6.05216C27.3523 6.04963 27.3574 6.04626 27.3624 6.04373C27.3675 6.0412 27.3726 6.03782 27.3776 6.03529C27.3827 6.03276 27.3877 6.02939 27.3928 6.02686C27.3979 6.02433 27.4029 6.02096 27.408 6.01843C27.413 6.0159 27.4181 6.01253 27.4232 6.01C27.4282 6.00747 27.4333 6.00409 27.4383 6.00156C27.4434 5.99903 27.4485 5.99566 27.4535 5.99313C27.4586 5.9906 27.4636 5.98723 27.4687 5.9847C27.4738 5.98217 27.4788 5.9788 27.4839 5.97627C27.4889 5.97374 27.494 5.97036 27.4991 5.96784C27.5041 5.96531 27.5092 5.96193 27.5142 5.9594C27.5193 5.95687 27.5243 5.9535 27.5294 5.95097C27.5345 5.94844 27.5395 5.94507 27.5446 5.94254C27.5496 5.94001 27.5547 5.93664 27.5598 5.93411C27.5648 5.93158 27.5699 5.9282 27.5749 5.92567C27.58 5.92314 27.5851 5.91977 27.5901 5.91724C27.5952 5.91471 27.6002 5.91134 27.6053 5.90881C27.6104 5.90628 27.6154 5.90291 27.6205 5.90038C27.6255 5.89785 27.6306 5.89447 27.6357 5.89194C27.6407 5.88942 27.6458 5.88604 27.6508 5.88351C27.6559 5.88098 27.6609 5.87761 27.666 5.87508C27.6711 5.87255 27.6761 5.86918 27.6812 5.86665C27.6862 5.86412 27.6913 5.86075 27.6964 5.85822C27.7014 5.85569 27.7065 5.85231 27.7115 5.84978C27.7166 5.84725 27.7217 5.84388 27.7267 5.84135C27.7318 5.83882 27.7368 5.83545 27.7419 5.83292C27.747 5.83039 27.752 5.82702 27.7571 5.82449C27.7621 5.82196 27.7672 5.81858 27.7723 5.81605C27.7773 5.81352 27.7824 5.81015 27.7874 5.80762C27.7925 5.80509 27.7976 5.80172 27.8026 5.79919C27.8077 5.79666 27.8127 5.79329 27.8178 5.79076C27.8228 5.78823 27.8279 5.78486 27.833 5.78233C27.838 5.7798 27.8431 5.77642 27.8481 5.77389C27.8532 5.77136 27.8583 5.76799 27.8633 5.76546C27.8684 5.76293 27.8734 5.75956 27.8785 5.75703C27.8836 5.7545 27.8886 5.75113 27.8937 5.7486C27.8987 5.74607 27.9038 5.74269 27.9089 5.74016C27.9139 5.73763 27.919 5.73426 27.924 5.73173C27.9291 5.7292 27.9342 5.72583 27.9392 5.7233C27.9443 5.72077 27.9493 5.7174 27.9544 5.71487C28.2757 5.54116 28.6897 5.56393 29.1425 5.82449L49.1463 17.3969C50.1692 17.9872 50.998 19.5716 50.998 20.9351V63.9556C50.998 64.7254 50.7333 65.26 50.3193 65.4742C50.3142 65.4768 50.3091 65.4801 50.3041 65.4827C50.299 65.4852 50.294 65.4886 50.2889 65.4911C50.2838 65.4936 50.2788 65.497 50.2737 65.4995C50.2687 65.5021 50.2636 65.5054 50.2585 65.508C50.2535 65.5105 50.2484 65.5139 50.2434 65.5164C50.2383 65.5189 50.2332 65.5223 50.2282 65.5248C50.2231 65.5274 50.2181 65.5307 50.213 65.5332C50.2079 65.5358 50.2029 65.5392 50.1978 65.5417C50.1928 65.5442 50.1877 65.5476 50.1826 65.5501C50.1776 65.5526 50.1725 65.556 50.1675 65.5585C50.1624 65.5611 50.1574 65.5645 50.1523 65.567C50.1472 65.5695 50.1422 65.5729 50.1371 65.5754C50.1321 65.5779 50.127 65.5813 50.1219 65.5838C50.1169 65.5864 50.1118 65.5897 50.1068 65.5923C50.1017 65.5948 50.0966 65.5982 50.0916 65.6007C50.0865 65.6032 50.0815 65.6066 50.0764 65.6091C50.0713 65.6117 50.0663 65.615 50.0612 65.6176C50.0562 65.6201 50.0511 65.6235 50.046 65.626C50.041 65.6285 50.0359 65.6319 50.0309 65.6344C50.0258 65.637 50.0207 65.6403 50.0157 65.6429C50.0106 65.6454 50.0056 65.6488 50.0005 65.6513C49.9955 65.6538 49.9904 65.6572 49.9853 65.6597C49.9803 65.6623 49.9752 65.6656 49.9702 65.6682C49.9651 65.6707 49.96 65.6741 49.955 65.6766C49.9499 65.6791 49.9449 65.6825 49.9398 65.685C49.9347 65.6876 49.9297 65.6909 49.9246 65.6935C49.9196 65.696 49.9145 65.6994 49.9094 65.7019C49.9044 65.7044 49.8993 65.7078 49.8943 65.7103C49.8892 65.7129 49.8841 65.7162 49.8791 65.7188C49.874 65.7213 49.869 65.7247 49.8639 65.7272C49.8588 65.7297 49.8538 65.7331 49.8487 65.7356C49.8437 65.7382 49.8386 65.7415 49.8336 65.7441C49.8285 65.7466 49.8234 65.75 49.8184 65.7525C49.8133 65.755 49.8083 65.7584 49.8032 65.7609C49.7981 65.7635 49.7931 65.7668 49.788 65.7694C49.783 65.7719 49.7779 65.7753 49.7728 65.7778C49.7678 65.7803 49.7627 65.7837 49.7577 65.7862C49.7526 65.7887 49.7475 65.7921 49.7425 65.7947C49.7374 65.7972 49.7324 65.8006 49.7273 65.8031C49.7222 65.8056 49.7172 65.809 49.7121 65.8115C49.7071 65.814 49.702 65.8174 49.697 65.82C49.6919 65.8225 49.6868 65.8259 49.6818 65.8284C49.6767 65.8309 49.6717 65.8343 49.6666 65.8368C49.6615 65.8393 49.6565 65.8427 49.6514 65.8452C49.6464 65.8478 49.6413 65.8511 49.6362 65.8537C49.6312 65.8562 49.6261 65.8596 49.6211 65.8621C49.616 65.8646 49.6109 65.868 49.6059 65.8705C49.6008 65.8731 49.5958 65.8764 49.5907 65.879C49.5856 65.8815 49.5806 65.8849 49.5755 65.8874C49.5705 65.8899 49.5654 65.8933 49.5603 65.8958C49.5553 65.8984 49.5502 65.9017 49.5452 65.9043C49.5401 65.9068 49.5351 65.9102 49.53 65.9127C49.5249 65.9152 49.5199 65.9186 49.5148 65.9211C49.5098 65.9237 49.5047 65.927 49.4996 65.9296C49.4946 65.9321 49.4895 65.9355 49.4845 65.938C49.4794 65.9405 49.4743 65.9439 49.4693 65.9464C49.4642 65.949 49.4592 65.9523 49.4541 65.9549C49.449 65.9574 49.444 65.9608 49.4389 65.9633C49.4339 65.9658 49.4288 65.9692 49.4237 65.9717C49.4187 65.9743 49.4136 65.9776 49.4086 65.9802C49.4035 65.9827 49.3984 65.9861 49.3934 65.9886C49.3883 65.9911 49.3833 65.9945 49.3782 65.997C49.3732 65.9996 49.3681 66.0029 49.363 66.0055C49.358 66.008 49.3529 66.0114 49.3479 66.0139C49.3428 66.0164 49.3377 66.0198 49.3327 66.0223C49.3276 66.0248 49.3226 66.0282 49.3175 66.0308C49.3124 66.0333 49.3074 66.0367 49.3023 66.0392C49.2973 66.0417 49.2922 66.0451 49.2871 66.0476C49.2821 66.0502 49.277 66.0535 49.272 66.056C49.2669 66.0586 49.2618 66.062 49.2568 66.0645C49.2517 66.067 49.2467 66.0704 49.2416 66.0729C49.2365 66.0754 49.2315 66.0788 49.2264 66.0813C49.2214 66.0839 49.2163 66.0873 49.2113 66.0898C49.2062 66.0923 49.2011 66.0957 49.1961 66.0982C49.191 66.1007 49.186 66.1041 49.1809 66.1066C49.1758 66.1092 49.1708 66.1125 49.1657 66.1151C49.1607 66.1176 49.1556 66.121 49.1505 66.1235C49.1455 66.126 49.1404 66.1294 49.1354 66.1319C49.1303 66.1345 49.1252 66.1378 49.1202 66.1404C49.1151 66.1429 49.1101 66.1463 49.105 66.1488C49.0999 66.1513 49.0949 66.1547 49.0898 66.1572C49.0848 66.1598 49.0797 66.1631 49.0747 66.1657C49.0696 66.1682 49.0645 66.1716 49.0595 66.1741C49.0544 66.1766 49.0494 66.18 49.0443 66.1825C49.0392 66.1851 49.0342 66.1884 49.0291 66.191C49.0241 66.1935 49.019 66.1969 49.0139 66.1994C49.0089 66.2019 49.0038 66.2053 48.9988 66.2078C48.9937 66.2104 48.9886 66.2137 48.9836 66.2163C48.9785 66.2188 48.9735 66.2222 48.9684 66.2247C48.9633 66.2272 48.9583 66.2306 48.9532 66.2331C48.9482 66.2357 48.9431 66.239 48.938 66.2416C48.933 66.2441 48.9279 66.2475 48.9229 66.25C48.9178 66.2525 48.9128 66.2559 48.9077 66.2584C48.9026 66.261 48.8976 66.2643 48.8925 66.2669C48.8875 66.2694 48.8824 66.2728 48.8773 66.2753C48.8723 66.2778 48.8672 66.2812 48.8622 66.2837C48.8571 66.2863 48.852 66.2896 48.847 66.2922C48.8419 66.2947 48.8369 66.2981 48.8318 66.3006C48.8267 66.3031 48.8217 66.3065 48.8166 66.309C48.8116 66.3116 48.8065 66.3149 48.8014 66.3174C48.7964 66.32 48.7913 66.3234 48.7863 66.3259C48.7812 66.3284 48.7761 66.3318 48.7711 66.3343C48.766 66.3368 48.761 66.3402 48.7559 66.3428C48.7509 66.3453 48.7458 66.3487 48.7407 66.3512C48.7357 66.3537 48.7306 66.3571 48.7256 66.3596C48.7205 66.3621 48.7154 66.3655 48.7104 66.368C48.7053 66.3706 48.7003 66.3739 48.6952 66.3765C48.6901 66.379 48.6851 66.3824 48.68 66.3849C48.675 66.3874 48.6699 66.3908 48.6648 66.3933C48.6598 66.3959 48.6547 66.3992 48.6497 66.4018C48.6446 66.4043 48.6395 66.4077 48.6345 66.4102C48.6294 66.4127 48.6244 66.4161 48.6193 66.4186C48.6142 66.4212 48.6092 66.4245 48.6041 66.4271C48.5991 66.4296 48.594 66.433 48.589 66.4355C48.5839 66.438 48.5788 66.4414 48.5738 66.4439C48.5687 66.4465 48.5637 66.4498 48.5586 66.4524C48.5535 66.4549 48.5485 66.4583 48.5434 66.4608C48.5384 66.4633 48.5333 66.4667 48.5282 66.4692C48.5232 66.4718 48.5181 66.4751 48.5131 66.4777C48.508 66.4802 48.5029 66.4836 48.4979 66.4861C48.4928 66.4886 48.4878 66.492 48.4827 66.4945C48.4776 66.4971 48.4726 66.5004 48.4675 66.503C48.4625 66.5055 48.4574 66.5089 48.4524 66.5114C48.4473 66.5139 48.4422 66.5173 48.4372 66.5198C48.4321 66.5224 48.4271 66.5257 48.422 66.5283C48.4169 66.5308 48.4119 66.5342 48.4068 66.5367C48.4018 66.5392 48.3967 66.5426 48.3916 66.5451C48.3866 66.5476 48.3815 66.551 48.3765 66.5536C48.3714 66.5561 48.3663 66.5595 48.3613 66.562C48.3562 66.5645 48.3512 66.5679 48.3461 66.5704C48.341 66.5729 48.336 66.5763 48.3309 66.5789C48.3259 66.5814 48.3208 66.5848 48.3157 66.5873C48.3107 66.5898 48.3056 66.5932 48.3006 66.5957C48.2955 66.5982 48.2905 66.6016 48.2854 66.6041C48.2803 66.6067 48.2753 66.61 48.2702 66.6126C48.2652 66.6151 48.2601 66.6185 48.255 66.621C48.25 66.6235 48.2449 66.6269 48.2399 66.6294C48.2348 66.632 48.2297 66.6353 48.2247 66.6379C48.2196 66.6404 48.2146 66.6438 48.2095 66.6463C48.2044 66.6488 48.1994 66.6522 48.1943 66.6547C48.1893 66.6573 48.1842 66.6606 48.1791 66.6632C48.1741 66.6657 48.169 66.6691 48.164 66.6716C48.1589 66.6741 48.1538 66.6775 48.1488 66.68C48.1437 66.6826 48.1387 66.6859 48.1336 66.6885C48.1286 66.691 48.1235 66.6944 48.1184 66.6969C48.1134 66.6994 48.1083 66.7028 48.1033 66.7053C48.0982 66.7079 48.0931 66.7112 48.0881 66.7138C48.083 66.7163 48.078 66.7197 48.0729 66.7222C48.0678 66.7247 48.0628 66.7281 48.0577 66.7306C48.0527 66.7332 48.0476 66.7365 48.0425 66.7391C47.7213 66.9128 47.3073 66.89 46.8544 66.6294L26.8177 55.0612C25.7949 54.471 24.966 52.8866 24.966 51.5231V8.49751C24.966 7.72765 25.2308 7.19304 25.6448 6.97886L25.6777 6.97971Z" fill="#108C75"/>
<path d="M26.8489 55.0561L46.8856 66.6243C47.9084 67.2145 48.7373 66.588 48.7373 65.2245V22.204C48.7373 20.8405 47.9084 19.2561 46.8856 18.6658L26.8489 7.09763C25.826 6.50737 24.9971 7.13389 24.9971 8.49738V51.5179C24.9971 52.8814 25.826 54.4658 26.8489 55.0561Z" fill="#0BAA8D"/>
<path d="M26.5426 10.0853V51.7136C26.5426 52.2862 26.9474 52.9835 27.4466 53.2711L46.2884 64.1495C46.7876 64.4379 47.1924 64.2077 47.1924 63.6351V22.0076C47.1924 21.4385 46.7876 20.7411 46.2884 20.4527L43.3903 18.7798C43.1145 18.6204 42.8911 18.7477 42.8911 19.0639V19.7082C42.8911 20.4983 42.332 20.8162 41.6431 20.4182L32.0919 14.9043C31.4022 14.5063 30.8439 13.5433 30.8439 12.7532V12.109C30.8439 11.7928 30.6205 11.4075 30.3447 11.2481L27.4466 9.57513C26.9474 9.28675 26.5426 9.51695 26.5426 10.0861V10.0853Z" fill="#3DFFDC"/>
</g>
<path d="M20.4665 55.2821C20.4665 54.6659 20.5705 54.1417 20.7585 53.7136C19.286 53.5535 18.2457 54.6139 18.2457 56.5626C18.2457 59.1235 20.0423 62.2366 22.2631 63.517C23.9477 64.4894 25.3882 64.1212 25.9844 62.7648C25.5202 62.7127 25.0121 62.5407 24.4799 62.2366C22.2631 60.9561 20.4665 57.843 20.4665 55.2821Z" fill="#E17900"/>
<path d="M30.4981 54.1254C27.173 48.3714 21.7871 45.2543 18.4619 47.175L16.2451 48.4554C19.5703 46.5348 24.9602 49.6479 28.2853 55.4059C31.6065 61.1599 31.6065 67.3781 28.2933 69.2987L30.5061 68.0223C33.8313 66.1016 33.8313 59.8794 30.5061 54.1214L30.4981 54.1254Z" fill="#E17900"/>
<path d="M28.282 69.306L22.2638 72.7792L16.2457 62.3555C12.9206 56.5975 12.9206 50.3753 16.2457 48.4547C19.5709 46.534 24.9608 49.6471 28.2859 55.4051C31.6071 61.1631 31.6111 67.3853 28.2859 69.306H28.282ZM26.2773 61.1991C26.2773 58.6382 24.4806 55.5212 22.2638 54.2407C20.0471 52.9603 18.2464 53.9966 18.2464 56.5615C18.2464 59.1264 20.0431 62.2355 22.2638 63.5159C24.4806 64.7964 26.2773 63.756 26.2773 61.1991Z" fill="#FF9C28"/>
<defs>
<clipPath id="clip0_23_722">
<rect width="26" height="61.2401" fill="white" transform="matrix(-1 0 0 1 51 5.60791)"/>
</clipPath>
</defs>
</svg>
