<svg width="17" height="18" viewBox="0 0 17 18" fill="none" xmlns="http://www.w3.org/2000/svg">
<path d="M16.4639 12.4359L11.3269 17.5729C10.8895 18.0103 10.1717 18.0103 9.73424 17.5729C9.29681 17.1354 9.29681 16.4176 9.73424 15.9802L12.9645 12.7611H1.55765C0.940763 12.7611 0.436035 12.2564 0.436035 11.6395V1.80228C0.436035 1.18539 0.940763 0.680664 1.55765 0.680664C2.17454 0.680664 2.67927 1.18539 2.67927 1.80228V10.5179H12.9645L9.73424 7.29887C9.29681 6.86144 9.29681 6.14361 9.73424 5.70617C10.1717 5.26874 10.8895 5.26874 11.3269 5.70617L16.4639 10.8432C16.9014 11.2806 16.9014 11.9984 16.4639 12.4359Z" fill="#5A5C60"/>
</svg>
