<svg width="72" height="72" viewBox="0 0 72 72" fill="none" xmlns="http://www.w3.org/2000/svg">
<g clip-path="url(#clip0_23_587)">
<path d="M36.5008 48.37L21.2866 22.9214L6.07227 31.4048V52.264C6.07227 53.3519 6.66115 54.3545 7.61126 54.8843L34.5528 69.9067C35.7637 70.5819 37.2379 70.5819 38.4488 69.9067L51.7151 62.5095L61.858 56.8534L65.3902 54.8842C66.3405 54.3545 66.9294 53.3518 66.9294 52.2639V31.4048L36.5008 48.3715V48.37Z" fill="#3DFFDC"/>
<path d="M6.07143 31.4046L1 28.5773L21.2857 17.2666L41.5714 51.1986L36.5 48.3698L21.2857 22.9212L6.07143 31.4046Z" fill="#108C75"/>
<path d="M51.7136 0.29961L21.2852 17.2656L41.5709 51.1978L71.9994 34.2317L51.7136 0.29961Z" fill="#0BAA8D"/>
</g>
<path d="M6.7145 53.9726C6.7145 53.3563 6.81853 52.8322 7.00659 52.404C5.53408 52.244 4.49373 53.3043 4.49373 55.253C4.49373 57.8139 6.29035 60.927 8.51112 62.2075C10.1957 63.1798 11.6362 62.8117 12.2324 61.4552C11.7683 61.4032 11.2601 61.2311 10.7279 60.927C8.51114 59.6466 6.7145 56.5335 6.7145 53.9726Z" fill="#E17900"/>
<path d="M16.7462 52.8159C13.421 47.0618 8.03511 43.9447 4.70994 45.8654L2.49318 47.1459C5.81834 45.2252 11.2082 48.3383 14.5334 54.0963C17.8545 59.8503 17.8545 66.0685 14.5414 67.9892L16.7542 66.7127C20.0793 64.792 20.0793 58.5699 16.7542 52.8118L16.7462 52.8159Z" fill="#E17900"/>
<path d="M14.53 67.9964L8.51189 71.4696L2.49379 61.046C-0.831371 55.2879 -0.831371 49.0658 2.49379 47.1451C5.81896 45.2244 11.2088 48.3375 14.534 54.0955C17.8552 59.8535 17.8592 66.0757 14.534 67.9964H14.53ZM12.5253 59.8896C12.5253 57.3287 10.7287 54.2116 8.51189 52.9311C6.29512 51.6507 4.49449 52.687 4.49449 55.2519C4.49449 57.8168 6.29111 60.9259 8.51189 62.2064C10.7287 63.4868 12.5253 62.4464 12.5253 59.8896Z" fill="#FF9C28"/>
<defs>
<clipPath id="clip0_23_587">
<rect width="71" height="70.6914" fill="white" transform="translate(1 0.299805)"/>
</clipPath>
</defs>
</svg>
